<svg xmlns="http://www.w3.org/2000/svg" xmlns:xlink="http://www.w3.org/1999/xlink" xmlns:lucid="lucid" width="1047.44" height="844.72"><g transform="translate(-189.7 -51.972865341005715)" lucid:page-tab-id="0_0"><path d="M333.17 76.97c0-2.76 2.24-5 5-5h749.62c2.75 0 5 2.24 5 5v70c0 2.76-2.25 5-5 5H338.16c-2.76 0-5-2.24-5-5z" stroke="#000" stroke-opacity="0" stroke-width="2" fill="#fff" fill-opacity="0"/><use xlink:href="#a" transform="matrix(1,0,0,1,337.96740740740734,76.77286534100571) translate(23.08518518518514 42.43333333333334)"/><use xlink:href="#b" transform="matrix(1,0,0,1,337.96740740740734,76.77286534100571) translate(130.937037037037 42.43333333333334)"/><use xlink:href="#c" transform="matrix(1,0,0,1,337.96740740740734,76.77286534100571) translate(175.30740740740737 42.43333333333334)"/><use xlink:href="#d" transform="matrix(1,0,0,1,337.96740740740734,76.77286534100571) translate(287.67777777777775 42.43333333333334)"/><use xlink:href="#e" transform="matrix(1,0,0,1,337.96740740740734,76.77286534100571) translate(303.9 42.43333333333334)"/><use xlink:href="#f" transform="matrix(1,0,0,1,337.96740740740734,76.77286534100571) translate(414.93703703703704 42.43333333333334)"/><use xlink:href="#g" transform="matrix(1,0,0,1,337.96740740740734,76.77286534100571) translate(469.60370370370373 42.43333333333334)"/><use xlink:href="#h" transform="matrix(1,0,0,1,337.96740740740734,76.77286534100571) translate(530.1962962962964 42.43333333333334)"/><use xlink:href="#i" transform="matrix(1,0,0,1,337.96740740740734,76.77286534100571) translate(641.1592592592592 42.43333333333334)"/><path d="M433.17 137.4c0-2.76 2.24-5 5-5h544.77c2.76 0 5 2.24 5 5v34.24c0 2.76-2.24 5-5 5H438.17c-2.76 0-5-2.24-5-5z" stroke="#000" stroke-opacity="0" stroke-width="2" fill="#fff" fill-opacity="0"/><use xlink:href="#j" transform="matrix(1,0,0,1,437.9674074074073,137.20441800615097) translate(158.14999999999998 22.211111111111112)"/><use xlink:href="#k" transform="matrix(1,0,0,1,437.9674074074073,137.20441800615097) translate(196.17469135802466 22.211111111111112)"/><use xlink:href="#l" transform="matrix(1,0,0,1,437.9674074074073,137.20441800615097) translate(261.72407407407405 22.211111111111112)"/><use xlink:href="#m" transform="matrix(1,0,0,1,437.9674074074073,137.20441800615097) translate(274.38456790123456 22.211111111111112)"/><use xlink:href="#n" transform="matrix(1,0,0,1,437.9674074074073,137.20441800615097) translate(340.79814814814813 22.211111111111112)"/><use xlink:href="#o" transform="matrix(1,0,0,1,437.9674074074073,137.20441800615097) translate(358.0820987654321 22.211111111111112)"/><path d="M443.13 137.2h536.45M443.13 137.2h-3M979.58 137.2h3" stroke="#b2b2b2" stroke-width="2" fill="none"/><path d="M499.88 193.73c0-2.76 2.24-5 5-5h158c2.76 0 5 2.24 5 5v90.8c0 2.76-2.24 5-5 5h-158c-2.76 0-5-2.24-5-5z" stroke="#000" stroke-opacity="0" stroke-width="2" fill="#a5ceff"/><use xlink:href="#p" transform="matrix(1,0,0,1,504.87759259259235,193.72999999999996) translate(44.86550000000001 51.092)"/><path d="M499.88 361.5c0-2.77 2.24-5 5-5h158c2.76 0 5 2.23 5 5v90.8c0 2.75-2.24 5-5 5h-158c-2.76 0-5-2.25-5-5z" stroke="#000" stroke-opacity="0" stroke-width="2" fill="#a5ceff"/><use xlink:href="#q" transform="matrix(1,0,0,1,504.87759259259235,361.4899999999999) translate(41.79766666666668 51.092)"/><path d="M1049.14 576.12c0-2.76 2.24-5 5-5h158c2.76 0 5 2.24 5 5v90.8c0 2.76-2.24 5-5 5h-158c-2.76 0-5-2.24-5-5z" stroke="#000" stroke-opacity="0" stroke-width="2" fill="#a5ceff"/><use xlink:href="#r" transform="matrix(1,0,0,1,1054.1377777777777,576.118) translate(13.022166666666692 51.092)"/><use xlink:href="#s" transform="matrix(1,0,0,1,1054.1377777777777,576.118) translate(84.39783333333332 51.092)"/><path d="M209.7 571.2c0-2.77 2.24-5 5-5h178.73c2.76 0 5 2.23 5 5v100.65c0 2.76-2.24 5-5 5H214.7c-2.76 0-5-2.24-5-5z" stroke="#000" stroke-opacity="0" stroke-width="2" fill="#a5ceff"/><use xlink:href="#t" transform="matrix(1,0,0,1,214.7,571.19) translate(60.06433333333335 39.316)"/><use xlink:href="#u" transform="matrix(1,0,0,1,214.7,571.19) translate(8.027666666666704 72.868)"/><path d="M769.33 576.12c0-2.76 2.23-5 5-5h178.73c2.76 0 5 2.24 5 5v90.8c0 2.76-2.24 5-5 5H774.33c-2.77 0-5-2.24-5-5z" stroke="#000" stroke-opacity="0" stroke-width="2" fill="#a5ceff"/><use xlink:href="#v" transform="matrix(1,0,0,1,774.3251851851851,576.118) translate(0.2998333333333676 34.316)"/><use xlink:href="#w" transform="matrix(1,0,0,1,774.3251851851851,576.118) translate(57.69550000000001 34.316)"/><use xlink:href="#x" transform="matrix(1,0,0,1,774.3251851851851,576.118) translate(67.79216666666667 67.868)"/><path d="M220.06 738.95c0-2.76 2.24-5 5-5h158c2.77 0 5 2.24 5 5v90.8c0 2.76-2.23 5-5 5h-158c-2.76 0-5-2.24-5-5z" stroke="#000" stroke-opacity="0" stroke-width="2" fill="#a5ceff"/><use xlink:href="#y" transform="matrix(1,0,0,1,225.06499999999994,738.9499999999999) translate(6.187500000000028 34.316)"/><use xlink:href="#z" transform="matrix(1,0,0,1,225.06499999999994,738.9499999999999) translate(72.82549999999999 34.316)"/><use xlink:href="#A" transform="matrix(1,0,0,1,225.06499999999994,738.9499999999999) translate(3.702166666666699 67.868)"/><use xlink:href="#B" transform="matrix(1,0,0,1,225.06499999999994,738.9499999999999) translate(107.69783333333332 67.868)"/><path d="M583.88 457.3v49.44c0 2.76-2.24 5-5 5h-269.8c-2.78 0-5 2.24-5 5v31.2" stroke="#666" stroke-width="2" fill="none"/><path fill="#666"/><path d="M304.06 562.95l-4.63-14.26h9.27z" fill="#666"/><path d="M304.06 566.2l-6-18.5h12.02zm-3.25-16.5l3.26 10.02 3.26-10.03z" fill="#666"/><path d="M489.5 571.2c0-2.77 2.25-5 5-5h178.74c2.76 0 5 2.23 5 5v100.65c0 2.76-2.24 5-5 5H494.5c-2.75 0-5-2.24-5-5z" stroke="#000" stroke-opacity="0" stroke-width="2" fill="#a5ceff"/><use xlink:href="#C" transform="matrix(1,0,0,1,494.5125925925924,571.19) translate(49.15216666666668 39.316)"/><use xlink:href="#D" transform="matrix(1,0,0,1,494.5125925925924,571.19) translate(40.64766666666669 72.868)"/><path d="M412.84 780.9c0-2.77 2.23-5 5-5h178.73c2.76 0 5 2.23 5 5v90.8c0 2.75-2.24 5-5 5H417.84c-2.77 0-5-2.25-5-5z" stroke="#000" stroke-opacity="0" stroke-width="2" fill="#a5ceff"/><use xlink:href="#E" transform="matrix(1,0,0,1,417.83518518518514,780.89) translate(47.63766666666668 34.316)"/><use xlink:href="#F" transform="matrix(1,0,0,1,417.83518518518514,780.89) translate(21.93000000000002 67.868)"/><path d="M626.34 780.9c0-2.77 2.23-5 5-5h178.73c2.76 0 5 2.23 5 5v90.8c0 2.75-2.24 5-5 5H631.34c-2.77 0-5-2.25-5-5z" stroke="#000" stroke-opacity="0" stroke-width="2" fill="#a5ceff"/><use xlink:href="#G" transform="matrix(1,0,0,1,631.3353703703704,780.89) translate(67.09316666666668 34.316)"/><use xlink:href="#H" transform="matrix(1,0,0,1,631.3353703703704,780.89) translate(8.882000000000033 67.868)"/><path d="M304.06 676.85v38.85" stroke="#666" stroke-width="2" fill="none"/><path fill="#666"/><path d="M304.06 730.7l-4.63-14.25h9.27z" fill="#666"/><path d="M304.06 733.95l-6-18.5h12.02zm-3.25-16.5l3.26 10.03 3.26-10.03z" fill="#666"/><path d="M583.88 289.53v48.72" stroke="#666" stroke-width="2" fill="none"/><path fill="#666"/><path d="M583.88 353.25L579.24 339h9.27z" fill="#666"/><path d="M583.88 356.5l-6-18.5h12zm-3.26-16.5l3.26 10.02 3.26-10.03z" fill="#666"/><path d="M583.88 457.3v90.64" stroke="#666" stroke-width="2" fill="none"/><path fill="#666"/><path d="M583.88 562.95l-4.64-14.26h9.27z" fill="#666"/><path d="M583.88 566.2l-6-18.5h12zm-3.26-16.5l3.26 10.02 3.26-10.03z" fill="#666"/><path d="M583.88 457.3v51.9c0 2.77 2.24 5 5 5h269.8c2.77 0 5 2.24 5 5v33.68" stroke="#666" stroke-width="2" fill="none"/><path fill="#666"/><path d="M863.7 567.88l-4.65-14.26h9.28z" fill="#666"/><path d="M863.7 571.12l-6.02-18.5h12.02zm-3.27-16.5l3.26 10.03 3.25-10.03z" fill="#666"/><path d="M583.88 676.85v44.52c0 2.76-2.24 5-5 5H512.2c-2.76 0-5 2.24-5 5v26.28" stroke="#666" stroke-width="2" fill="none"/><path fill="#666"/><path d="M507.2 772.65l-4.64-14.26h9.28z" fill="#666"/><path d="M507.2 775.9l-6-18.5h12zm-3.26-16.5l3.26 10.02 3.26-10.03z" fill="#666"/><path d="M583.88 676.85v44.52c0 2.76 2.24 5 5 5H715.7c2.76 0 5 2.24 5 5v26.28" stroke="#666" stroke-width="2" fill="none"/><path fill="#666"/><path d="M720.7 772.65l-4.63-14.26h9.27z" fill="#666"/><path d="M720.7 775.9l-6-18.5h12zm-3.26-16.5l3.26 10.02 3.26-10.03z" fill="#666"/><path d="M583.88 457.3v51.9c0 2.77 2.24 5 5 5h539.26c2.76 0 5 2.24 5 5v33.68" stroke="#666" stroke-width="2" fill="none"/><path fill="#666"/><path d="M1133.14 567.88l-4.64-14.26h9.27z" fill="#666"/><path d="M1133.14 571.12l-6-18.5h12zm-3.26-16.5l3.26 10.03 3.26-10.03z" fill="#666"/><defs><path fill="#666" d="M24-248c120-7 223 5 221 122C244-46 201 0 124 0H24v-248zM76-40c74 7 117-18 117-86 0-67-45-88-117-82v168" id="I"/><path fill="#666" d="M110-194c64 0 96 36 96 99 0 64-35 99-97 99-61 0-95-36-95-99 0-62 34-99 96-99zm-1 164c35 0 45-28 45-65 0-40-10-65-43-65-34 0-45 26-45 65 0 36 10 65 43 65" id="J"/><path fill="#666" d="M190-63c-7 42-38 67-86 67-59 0-84-38-90-98-12-110 154-137 174-36l-49 2c-2-19-15-32-35-32-30 0-35 28-38 64-6 74 65 87 74 30" id="K"/><path fill="#666" d="M115-3C79 11 28 4 28-45v-112H4v-33h27l15-45h31v45h36v33H77v99c-1 23 16 31 38 25v30" id="L"/><path fill="#666" d="M135-150c-39-12-60 13-60 57V0H25l-1-190h47c2 13-1 29 3 40 6-28 27-53 61-41v41" id="M"/><path fill="#666" d="M137-138c1-29-70-34-71-4 15 46 118 7 119 86 1 83-164 76-172 9l43-7c4 19 20 25 44 25 33 8 57-30 24-41C81-84 22-81 20-136c-2-80 154-74 161-7" id="N"/><g id="a"><use transform="matrix(0.07407407407407408,0,0,0.07407407407407408,0,0)" xlink:href="#I"/><use transform="matrix(0.07407407407407408,0,0,0.07407407407407408,19.185185185185187,0)" xlink:href="#J"/><use transform="matrix(0.07407407407407408,0,0,0.07407407407407408,35.40740740740741,0)" xlink:href="#K"/><use transform="matrix(0.07407407407407408,0,0,0.07407407407407408,50.22222222222223,0)" xlink:href="#L"/><use transform="matrix(0.07407407407407408,0,0,0.07407407407407408,59.037037037037045,0)" xlink:href="#J"/><use transform="matrix(0.07407407407407408,0,0,0.07407407407407408,75.25925925925927,0)" xlink:href="#M"/><use transform="matrix(0.07407407407407408,0,0,0.07407407407407408,85.62962962962965,0)" xlink:href="#N"/></g><path fill="#666" d="M140-251c80 0 125 45 125 126S219 4 139 4C58 4 15-44 15-125s44-126 125-126zm-1 214c52 0 73-35 73-88 0-50-21-86-72-86-52 0-73 35-73 86s22 88 72 88" id="O"/><path fill="#666" d="M135-194c87-1 58 113 63 194h-50c-7-57 23-157-34-157-59 0-34 97-39 157H25l-1-190h47c2 12-1 28 3 38 12-26 28-41 61-42" id="P"/><g id="b"><use transform="matrix(0.07407407407407408,0,0,0.07407407407407408,0,0)" xlink:href="#O"/><use transform="matrix(0.07407407407407408,0,0,0.07407407407407408,20.740740740740744,0)" xlink:href="#P"/></g><path fill="#666" d="M185-48c-13 30-37 53-82 52C43 2 14-33 14-96s30-98 90-98c62 0 83 45 84 108H66c0 31 8 55 39 56 18 0 30-7 34-22zm-45-69c5-46-57-63-70-21-2 6-4 13-4 21h74" id="Q"/><path fill="#666" d="M220-157c-53 9-28 100-34 157h-49v-107c1-27-5-49-29-50C55-147 81-57 75 0H25l-1-190h47c2 12-1 28 3 38 10-53 101-56 108 0 13-22 24-43 59-42 82 1 51 116 57 194h-49v-107c-1-25-5-48-29-50" id="R"/><path fill="#666" d="M133-34C117-15 103 5 69 4 32 3 11-16 11-54c-1-60 55-63 116-61 1-26-3-47-28-47-18 1-26 9-28 27l-52-2c7-38 36-58 82-57s74 22 75 68l1 82c-1 14 12 18 25 15v27c-30 8-71 5-69-32zm-48 3c29 0 43-24 42-57-32 0-66-3-65 30 0 17 8 27 23 27" id="S"/><path fill="#666" d="M88-194c31-1 46 15 58 34l-1-101h50l1 261h-48c-2-10 0-23-3-31C134-8 116 4 84 4 32 4 16-41 15-95c0-56 19-97 73-99zm17 164c33 0 40-30 41-66 1-37-9-64-41-64s-38 30-39 65c0 43 13 65 39 65" id="T"/><g id="c"><use transform="matrix(0.07407407407407408,0,0,0.07407407407407408,0,0)" xlink:href="#I"/><use transform="matrix(0.07407407407407408,0,0,0.07407407407407408,19.185185185185187,0)" xlink:href="#Q"/><use transform="matrix(0.07407407407407408,0,0,0.07407407407407408,34,0)" xlink:href="#R"/><use transform="matrix(0.07407407407407408,0,0,0.07407407407407408,57.70370370370371,0)" xlink:href="#S"/><use transform="matrix(0.07407407407407408,0,0,0.07407407407407408,72.51851851851853,0)" xlink:href="#P"/><use transform="matrix(0.07407407407407408,0,0,0.07407407407407408,88.74074074074078,0)" xlink:href="#T"/></g><path fill="#666" d="M14-72v-43h91v43H14" id="U"/><use transform="matrix(0.07407407407407408,0,0,0.07407407407407408,0,0)" xlink:href="#U" id="d"/><path fill="#666" d="M169-182c-1-43-94-46-97-3 18 66 151 10 154 114 3 95-165 93-204 36-6-8-10-19-12-30l50-8c3 46 112 56 116 5-17-69-150-10-154-114-4-87 153-88 188-35 5 8 8 18 10 28" id="V"/><g id="e"><use transform="matrix(0.07407407407407408,0,0,0.07407407407407408,0,0)" xlink:href="#V"/><use transform="matrix(0.07407407407407408,0,0,0.07407407407407408,17.77777777777778,0)" xlink:href="#K"/><use transform="matrix(0.07407407407407408,0,0,0.07407407407407408,32.592592592592595,0)" xlink:href="#M"/><use transform="matrix(0.07407407407407408,0,0,0.07407407407407408,42.96296296296297,0)" xlink:href="#Q"/><use transform="matrix(0.07407407407407408,0,0,0.07407407407407408,57.777777777777786,0)" xlink:href="#Q"/><use transform="matrix(0.07407407407407408,0,0,0.07407407407407408,72.59259259259261,0)" xlink:href="#P"/><use transform="matrix(0.07407407407407408,0,0,0.07407407407407408,88.81481481481484,0)" xlink:href="#N"/></g><g id="f"><use transform="matrix(0.07407407407407408,0,0,0.07407407407407408,0,0)" xlink:href="#S"/><use transform="matrix(0.07407407407407408,0,0,0.07407407407407408,14.814814814814817,0)" xlink:href="#P"/><use transform="matrix(0.07407407407407408,0,0,0.07407407407407408,31.03703703703704,0)" xlink:href="#T"/></g><path fill="#666" d="M121-226c-27-7-43 5-38 36h38v33H83V0H34v-157H6v-33h28c-9-59 32-81 87-68v32" id="W"/><path fill="#666" d="M25 0v-261h50V0H25" id="X"/><path fill="#666" d="M231 0h-52l-39-155L100 0H48L-1-190h46L77-45c9-52 24-97 36-145h53l37 145 32-145h46" id="Y"/><g id="g"><use transform="matrix(0.07407407407407408,0,0,0.07407407407407408,0,0)" xlink:href="#W"/><use transform="matrix(0.07407407407407408,0,0,0.07407407407407408,8.814814814814817,0)" xlink:href="#X"/><use transform="matrix(0.07407407407407408,0,0,0.07407407407407408,16.222222222222225,0)" xlink:href="#J"/><use transform="matrix(0.07407407407407408,0,0,0.07407407407407408,32.44444444444445,0)" xlink:href="#Y"/></g><path fill="#666" d="M20 75v-336h95v34H67V41h48v34H20" id="Z"/><path fill="#666" d="M123 10C108 53 80 86 19 72V37c35 8 53-11 59-39L3-190h52l48 148c12-52 28-100 44-148h51" id="aa"/><g id="h"><use transform="matrix(0.07407407407407408,0,0,0.07407407407407408,0,0)" xlink:href="#Z"/><use transform="matrix(0.07407407407407408,0,0,0.07407407407407408,8.814814814814817,0)" xlink:href="#V"/><use transform="matrix(0.07407407407407408,0,0,0.07407407407407408,26.592592592592595,0)" xlink:href="#aa"/><use transform="matrix(0.07407407407407408,0,0,0.07407407407407408,41.40740740740741,0)" xlink:href="#N"/><use transform="matrix(0.07407407407407408,0,0,0.07407407407407408,56.22222222222223,0)" xlink:href="#L"/><use transform="matrix(0.07407407407407408,0,0,0.07407407407407408,65.03703703703704,0)" xlink:href="#Q"/><use transform="matrix(0.07407407407407408,0,0,0.07407407407407408,79.85185185185185,0)" xlink:href="#R"/></g><path fill="#666" d="M199 0l-22-63H83L61 0H9l90-248h61L250 0h-51zm-33-102l-36-108c-10 38-24 72-36 108h72" id="ab"/><path fill="#666" d="M25-224v-37h50v37H25zM25 0v-190h50V0H25" id="ac"/><path fill="#666" d="M4 75V41h49v-268H4v-34h96V75H4" id="ad"/><g id="i"><use transform="matrix(0.07407407407407408,0,0,0.07407407407407408,0,0)" xlink:href="#ab"/><use transform="matrix(0.07407407407407408,0,0,0.07407407407407408,19.185185185185187,0)" xlink:href="#T"/><use transform="matrix(0.07407407407407408,0,0,0.07407407407407408,35.40740740740741,0)" xlink:href="#R"/><use transform="matrix(0.07407407407407408,0,0,0.07407407407407408,59.11111111111111,0)" xlink:href="#ac"/><use transform="matrix(0.07407407407407408,0,0,0.07407407407407408,66.51851851851852,0)" xlink:href="#P"/><use transform="matrix(0.07407407407407408,0,0,0.07407407407407408,82.74074074074075,0)" xlink:href="#ad"/></g><path fill="#666" d="M153-248C145-148 188 4 80 4 36 3 13-21 6-62l32-5c4 25 16 42 43 43 27 0 39-20 39-49v-147H72v-28h81" id="ae"/><path fill="#666" d="M100-194c62-1 85 37 85 99 1 63-27 99-86 99S16-35 15-95c0-66 28-99 85-99zM99-20c44 1 53-31 53-75 0-43-8-75-51-75s-53 32-53 75 10 74 51 75" id="af"/><path fill="#666" d="M106-169C34-169 62-67 57 0H25v-261h32l-1 103c12-21 28-36 61-36 89 0 53 116 60 194h-32v-121c2-32-8-49-39-48" id="ag"/><path fill="#666" d="M117-194c89-4 53 116 60 194h-32v-121c0-31-8-49-39-48C34-167 62-67 57 0H25l-1-190h30c1 10-1 24 2 32 11-22 29-35 61-36" id="ah"/><g id="j"><use transform="matrix(0.04320987654320988,0,0,0.04320987654320988,0,0)" xlink:href="#ae"/><use transform="matrix(0.04320987654320988,0,0,0.04320987654320988,7.777777777777779,0)" xlink:href="#af"/><use transform="matrix(0.04320987654320988,0,0,0.04320987654320988,16.419753086419753,0)" xlink:href="#ag"/><use transform="matrix(0.04320987654320988,0,0,0.04320987654320988,25.061728395061728,0)" xlink:href="#ah"/></g><path fill="#666" d="M185-189c-5-48-123-54-124 2 14 75 158 14 163 119 3 78-121 87-175 55-17-10-28-26-33-46l33-7c5 56 141 63 141-1 0-78-155-14-162-118-5-82 145-84 179-34 5 7 8 16 11 25" id="ai"/><path fill="#666" d="M141-36C126-15 110 5 73 4 37 3 15-17 15-53c-1-64 63-63 125-63 3-35-9-54-41-54-24 1-41 7-42 31l-33-3c5-37 33-52 76-52 45 0 72 20 72 64v82c-1 20 7 32 28 27v20c-31 9-61-2-59-35zM48-53c0 20 12 33 32 33 41-3 63-29 60-74-43 2-92-5-92 41" id="aj"/><path fill="#666" d="M59-47c-2 24 18 29 38 22v24C64 9 27 4 27-40v-127H5v-23h24l9-43h21v43h35v23H59v120" id="ak"/><path fill="#666" d="M100-194c63 0 86 42 84 106H49c0 40 14 67 53 68 26 1 43-12 49-29l28 8c-11 28-37 45-77 45C44 4 14-33 15-96c1-61 26-98 85-98zm52 81c6-60-76-77-97-28-3 7-6 17-6 28h103" id="al"/><path fill="#666" d="M114-163C36-179 61-72 57 0H25l-1-190h30c1 12-1 29 2 39 6-27 23-49 58-41v29" id="am"/><path fill="#666" d="M101-234c-31-9-42 10-38 44h38v23H63V0H32v-167H5v-23h27c-7-52 17-82 69-68v24" id="an"/><path fill="#666" d="M24-231v-30h32v30H24zM24 0v-190h32V0H24" id="ao"/><path fill="#666" d="M24 0v-261h32V0H24" id="ap"/><g id="k"><use transform="matrix(0.04320987654320988,0,0,0.04320987654320988,0,0)" xlink:href="#ai"/><use transform="matrix(0.04320987654320988,0,0,0.04320987654320988,10.370370370370372,0)" xlink:href="#aj"/><use transform="matrix(0.04320987654320988,0,0,0.04320987654320988,19.01234567901235,0)" xlink:href="#ak"/><use transform="matrix(0.04320987654320988,0,0,0.04320987654320988,23.333333333333336,0)" xlink:href="#al"/><use transform="matrix(0.04320987654320988,0,0,0.04320987654320988,31.97530864197531,0)" xlink:href="#am"/><use transform="matrix(0.04320987654320988,0,0,0.04320987654320988,37.117283950617285,0)" xlink:href="#an"/><use transform="matrix(0.04320987654320988,0,0,0.04320987654320988,41.43827160493827,0)" xlink:href="#ao"/><use transform="matrix(0.04320987654320988,0,0,0.04320987654320988,44.851851851851855,0)" xlink:href="#al"/><use transform="matrix(0.04320987654320988,0,0,0.04320987654320988,53.49382716049383,0)" xlink:href="#ap"/></g><path fill="#666" d="M32 76v-337h29V76H32" id="aq"/><use transform="matrix(0.04320987654320988,0,0,0.04320987654320988,0,0)" xlink:href="#aq" id="l"/><path fill="#666" d="M63-220v92h138v28H63V0H30v-248h175v28H63" id="ar"/><path fill="#666" d="M115-194c53 0 69 39 70 98 0 66-23 100-70 100C84 3 66-7 56-30L54 0H23l1-261h32v101c10-23 28-34 59-34zm-8 174c40 0 45-34 45-75 0-40-5-75-45-74-42 0-51 32-51 76 0 43 10 73 51 73" id="as"/><path fill="#666" d="M84 4C-5 8 30-112 23-190h32v120c0 31 7 50 39 49 72-2 45-101 50-169h31l1 190h-30c-1-10 1-25-2-33-11 22-28 36-60 37" id="at"/><path fill="#666" d="M179-190L93 31C79 59 56 82 12 73V49c39 6 53-20 64-50L1-190h34L92-34l54-156h33" id="au"/><g id="m"><use transform="matrix(0.04320987654320988,0,0,0.04320987654320988,0,0)" xlink:href="#ar"/><use transform="matrix(0.04320987654320988,0,0,0.04320987654320988,9.462962962962964,0)" xlink:href="#al"/><use transform="matrix(0.04320987654320988,0,0,0.04320987654320988,18.10493827160494,0)" xlink:href="#as"/><use transform="matrix(0.04320987654320988,0,0,0.04320987654320988,26.746913580246915,0)" xlink:href="#am"/><use transform="matrix(0.04320987654320988,0,0,0.04320987654320988,31.888888888888893,0)" xlink:href="#at"/><use transform="matrix(0.04320987654320988,0,0,0.04320987654320988,40.53086419753087,0)" xlink:href="#aj"/><use transform="matrix(0.04320987654320988,0,0,0.04320987654320988,49.17283950617284,0)" xlink:href="#am"/><use transform="matrix(0.04320987654320988,0,0,0.04320987654320988,54.314814814814824,0)" xlink:href="#au"/></g><path fill="#666" d="M126-127c33 6 58 20 58 59 0 88-139 92-164 29-3-8-5-16-6-25l32-3c6 27 21 44 54 44 32 0 52-15 52-46 0-38-36-46-79-43v-28c39 1 72-4 72-42 0-27-17-43-46-43-28 0-47 15-49 41l-32-3c6-42 35-63 81-64 48-1 79 21 79 65 0 36-21 52-52 59" id="av"/><path fill="#666" d="M68-38c1 34 0 65-14 84H32c9-13 17-26 17-46H33v-38h35" id="aw"/><g id="n"><use transform="matrix(0.04320987654320988,0,0,0.04320987654320988,0,0)" xlink:href="#av"/><use transform="matrix(0.04320987654320988,0,0,0.04320987654320988,8.641975308641976,0)" xlink:href="#aw"/></g><path fill="#666" d="M101-251c82-7 93 87 43 132L82-64C71-53 59-42 53-27h129V0H18c2-99 128-94 128-182 0-28-16-43-45-43s-46 15-49 41l-32-3c6-41 34-60 81-64" id="ax"/><path fill="#666" d="M101-251c68 0 85 55 85 127S166 4 100 4C33 4 14-52 14-124c0-73 17-127 87-127zm-1 229c47 0 54-49 54-102s-4-102-53-102c-51 0-55 48-55 102 0 53 5 102 54 102" id="ay"/><path fill="#666" d="M27 0v-27h64v-190l-56 39v-29l58-41h29v221h61V0H27" id="az"/><path fill="#666" d="M99-251c64 0 84 50 84 122C183-37 130 33 47-8c-14-7-20-23-25-40l30-5c6 39 69 39 84 7 9-19 16-44 16-74-10 22-31 35-62 35-49 0-73-33-73-83 0-54 28-83 82-83zm-1 141c31-1 51-18 51-49 0-36-14-67-51-67-34 0-49 23-49 58 0 34 15 58 49 58" id="aA"/><g id="o"><use transform="matrix(0.04320987654320988,0,0,0.04320987654320988,0,0)" xlink:href="#ax"/><use transform="matrix(0.04320987654320988,0,0,0.04320987654320988,8.641975308641976,0)" xlink:href="#ay"/><use transform="matrix(0.04320987654320988,0,0,0.04320987654320988,17.283950617283953,0)" xlink:href="#az"/><use transform="matrix(0.04320987654320988,0,0,0.04320987654320988,25.925925925925927,0)" xlink:href="#aA"/></g><path fill="#fff" d="M30 0v-248h33v221h125V0H30" id="aB"/><path fill="#fff" d="M100-194c62-1 85 37 85 99 1 63-27 99-86 99S16-35 15-95c0-66 28-99 85-99zM99-20c44 1 53-31 53-75 0-43-8-75-51-75s-53 32-53 75 10 74 51 75" id="aC"/><path fill="#fff" d="M177-190C167-65 218 103 67 71c-23-6-38-20-44-43l32-5c15 47 100 32 89-28v-30C133-14 115 1 83 1 29 1 15-40 15-95c0-56 16-97 71-98 29-1 48 16 59 35 1-10 0-23 2-32h30zM94-22c36 0 50-32 50-73 0-42-14-75-50-75-39 0-46 34-46 75s6 73 46 73" id="aD"/><path fill="#fff" d="M24-231v-30h32v30H24zM24 0v-190h32V0H24" id="aE"/><path fill="#fff" d="M117-194c89-4 53 116 60 194h-32v-121c0-31-8-49-39-48C34-167 62-67 57 0H25l-1-190h30c1 10-1 24 2 32 11-22 29-35 61-36" id="aF"/><g id="p"><use transform="matrix(0.07766666666666663,0,0,0.07766666666666663,0,0)" xlink:href="#aB"/><use transform="matrix(0.07766666666666663,0,0,0.07766666666666663,15.533333333333326,0)" xlink:href="#aC"/><use transform="matrix(0.07766666666666663,0,0,0.07766666666666663,31.066666666666652,0)" xlink:href="#aD"/><use transform="matrix(0.07766666666666663,0,0,0.07766666666666663,46.59999999999998,0)" xlink:href="#aE"/><use transform="matrix(0.07766666666666663,0,0,0.07766666666666663,52.735666666666646,0)" xlink:href="#aF"/></g><path fill="#fff" d="M197 0v-115H63V0H30v-248h33v105h134v-105h34V0h-34" id="aG"/><path fill="#fff" d="M210-169c-67 3-38 105-44 169h-31v-121c0-29-5-50-35-48C34-165 62-65 56 0H25l-1-190h30c1 10-1 24 2 32 10-44 99-50 107 0 11-21 27-35 58-36 85-2 47 119 55 194h-31v-121c0-29-5-49-35-48" id="aH"/><path fill="#fff" d="M100-194c63 0 86 42 84 106H49c0 40 14 67 53 68 26 1 43-12 49-29l28 8c-11 28-37 45-77 45C44 4 14-33 15-96c1-61 26-98 85-98zm52 81c6-60-76-77-97-28-3 7-6 17-6 28h103" id="aI"/><g id="q"><use transform="matrix(0.07766666666666663,0,0,0.07766666666666663,0,0)" xlink:href="#aG"/><use transform="matrix(0.07766666666666663,0,0,0.07766666666666663,20.11566666666666,0)" xlink:href="#aC"/><use transform="matrix(0.07766666666666663,0,0,0.07766666666666663,35.64899999999999,0)" xlink:href="#aH"/><use transform="matrix(0.07766666666666663,0,0,0.07766666666666663,58.87133333333331,0)" xlink:href="#aI"/></g><path fill="#fff" d="M205 0l-28-72H64L36 0H1l101-248h38L239 0h-34zm-38-99l-47-123c-12 45-31 82-46 123h93" id="aJ"/><path fill="#fff" d="M84 4C-5 8 30-112 23-190h32v120c0 31 7 50 39 49 72-2 45-101 50-169h31l1 190h-30c-1-10 1-25-2-33-11 22-28 36-60 37" id="aK"/><path fill="#fff" d="M85-194c31 0 48 13 60 33l-1-100h32l1 261h-30c-2-10 0-23-3-31C134-8 116 4 85 4 32 4 16-35 15-94c0-66 23-100 70-100zm9 24c-40 0-46 34-46 75 0 40 6 74 45 74 42 0 51-32 51-76 0-42-9-74-50-73" id="aL"/><path fill="#fff" d="M59-47c-2 24 18 29 38 22v24C64 9 27 4 27-40v-127H5v-23h24l9-43h21v43h35v23H59v120" id="aM"/><g id="r"><use transform="matrix(0.07766666666666663,0,0,0.07766666666666663,0,0)" xlink:href="#aJ"/><use transform="matrix(0.07766666666666663,0,0,0.07766666666666663,18.639999999999993,0)" xlink:href="#aK"/><use transform="matrix(0.07766666666666663,0,0,0.07766666666666663,34.17333333333332,0)" xlink:href="#aL"/><use transform="matrix(0.07766666666666663,0,0,0.07766666666666663,49.70666666666665,0)" xlink:href="#aE"/><use transform="matrix(0.07766666666666663,0,0,0.07766666666666663,55.84233333333331,0)" xlink:href="#aM"/></g><path fill="#fff" d="M135-143c-3-34-86-38-87 0 15 53 115 12 119 90S17 21 10-45l28-5c4 36 97 45 98 0-10-56-113-15-118-90-4-57 82-63 122-42 12 7 21 19 24 35" id="aN"/><g id="s"><use transform="matrix(0.07766666666666663,0,0,0.07766666666666663,0,0)" xlink:href="#aB"/><use transform="matrix(0.07766666666666663,0,0,0.07766666666666663,15.533333333333326,0)" xlink:href="#aC"/><use transform="matrix(0.07766666666666663,0,0,0.07766666666666663,31.066666666666652,0)" xlink:href="#aD"/><use transform="matrix(0.07766666666666663,0,0,0.07766666666666663,46.59999999999998,0)" xlink:href="#aN"/></g><path fill="#fff" d="M232-93c-1 65-40 97-104 97C67 4 28-28 28-90v-158h33c8 89-33 224 67 224 102 0 64-133 71-224h33v155" id="aO"/><path fill="#fff" d="M114-163C36-179 61-72 57 0H25l-1-190h30c1 12-1 29 2 39 6-27 23-49 58-41v29" id="aP"/><g id="t"><use transform="matrix(0.07766666666666663,0,0,0.07766666666666663,0,0)" xlink:href="#aO"/><use transform="matrix(0.07766666666666663,0,0,0.07766666666666663,20.11566666666666,0)" xlink:href="#aN"/><use transform="matrix(0.07766666666666663,0,0,0.07766666666666663,34.09566666666665,0)" xlink:href="#aI"/><use transform="matrix(0.07766666666666663,0,0,0.07766666666666663,49.62899999999998,0)" xlink:href="#aP"/></g><path fill="#fff" d="M240 0l2-218c-23 76-54 145-80 218h-23L58-218 59 0H30v-248h44l77 211c21-75 51-140 76-211h43V0h-30" id="aQ"/><path fill="#fff" d="M141-36C126-15 110 5 73 4 37 3 15-17 15-53c-1-64 63-63 125-63 3-35-9-54-41-54-24 1-41 7-42 31l-33-3c5-37 33-52 76-52 45 0 72 20 72 64v82c-1 20 7 32 28 27v20c-31 9-61-2-59-35zM48-53c0 20 12 33 32 33 41-3 63-29 60-74-43 2-92-5-92 41" id="aR"/><g id="u"><use transform="matrix(0.07766666666666663,0,0,0.07766666666666663,0,0)" xlink:href="#aQ"/><use transform="matrix(0.07766666666666663,0,0,0.07766666666666663,23.222333333333324,0)" xlink:href="#aR"/><use transform="matrix(0.07766666666666663,0,0,0.07766666666666663,38.75566666666665,0)" xlink:href="#aF"/><use transform="matrix(0.07766666666666663,0,0,0.07766666666666663,54.28899999999998,0)" xlink:href="#aR"/><use transform="matrix(0.07766666666666663,0,0,0.07766666666666663,69.8223333333333,0)" xlink:href="#aD"/><use transform="matrix(0.07766666666666663,0,0,0.07766666666666663,85.35566666666664,0)" xlink:href="#aI"/><use transform="matrix(0.07766666666666663,0,0,0.07766666666666663,100.88899999999998,0)" xlink:href="#aH"/><use transform="matrix(0.07766666666666663,0,0,0.07766666666666663,124.11133333333329,0)" xlink:href="#aI"/><use transform="matrix(0.07766666666666663,0,0,0.07766666666666663,139.6446666666666,0)" xlink:href="#aF"/><use transform="matrix(0.07766666666666663,0,0,0.07766666666666663,155.17799999999994,0)" xlink:href="#aM"/></g><path fill="#fff" d="M30-248c118-7 216 8 213 122C240-48 200 0 122 0H30v-248zM63-27c89 8 146-16 146-99s-60-101-146-95v194" id="aS"/><path fill="#fff" d="M96-169c-40 0-48 33-48 73s9 75 48 75c24 0 41-14 43-38l32 2c-6 37-31 61-74 61-59 0-76-41-82-99-10-93 101-131 147-64 4 7 5 14 7 22l-32 3c-4-21-16-35-41-35" id="aT"/><g id="v"><use transform="matrix(0.07766666666666663,0,0,0.07766666666666663,0,0)" xlink:href="#aS"/><use transform="matrix(0.07766666666666663,0,0,0.07766666666666663,20.11566666666666,0)" xlink:href="#aC"/><use transform="matrix(0.07766666666666663,0,0,0.07766666666666663,35.64899999999999,0)" xlink:href="#aT"/></g><path fill="#fff" d="M108 0H70L1-190h34L89-25l56-165h34" id="aU"/><g id="w"><use transform="matrix(0.07766666666666663,0,0,0.07766666666666663,0,0)" xlink:href="#aJ"/><use transform="matrix(0.07766666666666663,0,0,0.07766666666666663,18.639999999999993,0)" xlink:href="#aT"/><use transform="matrix(0.07766666666666663,0,0,0.07766666666666663,32.61999999999999,0)" xlink:href="#aM"/><use transform="matrix(0.07766666666666663,0,0,0.07766666666666663,40.386666666666656,0)" xlink:href="#aE"/><use transform="matrix(0.07766666666666663,0,0,0.07766666666666663,46.52233333333332,0)" xlink:href="#aU"/><use transform="matrix(0.07766666666666663,0,0,0.07766666666666663,60.50233333333331,0)" xlink:href="#aR"/><use transform="matrix(0.07766666666666663,0,0,0.07766666666666663,76.03566666666664,0)" xlink:href="#aM"/><use transform="matrix(0.07766666666666663,0,0,0.07766666666666663,83.80233333333332,0)" xlink:href="#aE"/><use transform="matrix(0.07766666666666663,0,0,0.07766666666666663,89.93799999999997,0)" xlink:href="#aC"/><use transform="matrix(0.07766666666666663,0,0,0.07766666666666663,105.4713333333333,0)" xlink:href="#aF"/></g><g id="x"><use transform="matrix(0.07766666666666663,0,0,0.07766666666666663,0,0)" xlink:href="#aB"/><use transform="matrix(0.07766666666666663,0,0,0.07766666666666663,15.533333333333326,0)" xlink:href="#aE"/><use transform="matrix(0.07766666666666663,0,0,0.07766666666666663,21.66899999999999,0)" xlink:href="#aN"/><use transform="matrix(0.07766666666666663,0,0,0.07766666666666663,35.64899999999999,0)" xlink:href="#aM"/></g><g id="y"><use transform="matrix(0.07766666666666663,0,0,0.07766666666666663,0,0)" xlink:href="#aO"/><use transform="matrix(0.07766666666666663,0,0,0.07766666666666663,20.11566666666666,0)" xlink:href="#aN"/><use transform="matrix(0.07766666666666663,0,0,0.07766666666666663,34.09566666666665,0)" xlink:href="#aI"/><use transform="matrix(0.07766666666666663,0,0,0.07766666666666663,49.62899999999998,0)" xlink:href="#aP"/></g><path fill="#fff" d="M30-248c87 1 191-15 191 75 0 78-77 80-158 76V0H30v-248zm33 125c57 0 124 11 124-50 0-59-68-47-124-48v98" id="aV"/><path fill="#fff" d="M101-234c-31-9-42 10-38 44h38v23H63V0H32v-167H5v-23h27c-7-52 17-82 69-68v24" id="aW"/><path fill="#fff" d="M24 0v-261h32V0H24" id="aX"/><g id="z"><use transform="matrix(0.07766666666666663,0,0,0.07766666666666663,0,0)" xlink:href="#aV"/><use transform="matrix(0.07766666666666663,0,0,0.07766666666666663,18.639999999999993,0)" xlink:href="#aP"/><use transform="matrix(0.07766666666666663,0,0,0.07766666666666663,27.88233333333332,0)" xlink:href="#aC"/><use transform="matrix(0.07766666666666663,0,0,0.07766666666666663,43.415666666666645,0)" xlink:href="#aW"/><use transform="matrix(0.07766666666666663,0,0,0.07766666666666663,51.18233333333331,0)" xlink:href="#aE"/><use transform="matrix(0.07766666666666663,0,0,0.07766666666666663,57.31799999999998,0)" xlink:href="#aX"/><use transform="matrix(0.07766666666666663,0,0,0.07766666666666663,63.45366666666664,0)" xlink:href="#aI"/></g><path fill="#fff" d="M212-179c-10-28-35-45-73-45-59 0-87 40-87 99 0 60 29 101 89 101 43 0 62-24 78-52l27 14C228-24 195 4 139 4 59 4 22-46 18-125c-6-104 99-153 187-111 19 9 31 26 39 46" id="aY"/><g id="A"><use transform="matrix(0.07766666666666663,0,0,0.07766666666666663,0,0)" xlink:href="#aY"/><use transform="matrix(0.07766666666666663,0,0,0.07766666666666663,20.11566666666666,0)" xlink:href="#aC"/><use transform="matrix(0.07766666666666663,0,0,0.07766666666666663,35.64899999999999,0)" xlink:href="#aF"/><use transform="matrix(0.07766666666666663,0,0,0.07766666666666663,51.18233333333331,0)" xlink:href="#aM"/><use transform="matrix(0.07766666666666663,0,0,0.07766666666666663,58.94899999999998,0)" xlink:href="#aR"/><use transform="matrix(0.07766666666666663,0,0,0.07766666666666663,74.4823333333333,0)" xlink:href="#aT"/><use transform="matrix(0.07766666666666663,0,0,0.07766666666666663,88.46233333333329,0)" xlink:href="#aM"/></g><path fill="#fff" d="M33 0v-248h34V0H33" id="aZ"/><g id="B"><use transform="matrix(0.07766666666666663,0,0,0.07766666666666663,0,0)" xlink:href="#aZ"/><use transform="matrix(0.07766666666666663,0,0,0.07766666666666663,7.766666666666663,0)" xlink:href="#aF"/><use transform="matrix(0.07766666666666663,0,0,0.07766666666666663,23.29999999999999,0)" xlink:href="#aW"/><use transform="matrix(0.07766666666666663,0,0,0.07766666666666663,31.066666666666652,0)" xlink:href="#aC"/></g><g id="C"><use transform="matrix(0.07766666666666663,0,0,0.07766666666666663,0,0)" xlink:href="#aO"/><use transform="matrix(0.07766666666666663,0,0,0.07766666666666663,20.11566666666666,0)" xlink:href="#aN"/><use transform="matrix(0.07766666666666663,0,0,0.07766666666666663,34.09566666666665,0)" xlink:href="#aR"/><use transform="matrix(0.07766666666666663,0,0,0.07766666666666663,49.62899999999998,0)" xlink:href="#aD"/><use transform="matrix(0.07766666666666663,0,0,0.07766666666666663,65.16233333333331,0)" xlink:href="#aI"/></g><path fill="#fff" d="M233-177c-1 41-23 64-60 70L243 0h-38l-65-103H63V0H30v-248c88 3 205-21 203 71zM63-129c60-2 137 13 137-47 0-61-80-42-137-45v92" id="ba"/><path fill="#fff" d="M115-194c55 1 70 41 70 98S169 2 115 4C84 4 66-9 55-30l1 105H24l-1-265h31l2 30c10-21 28-34 59-34zm-8 174c40 0 45-34 45-75s-6-73-45-74c-42 0-51 32-51 76 0 43 10 73 51 73" id="bb"/><g id="D"><use transform="matrix(0.07766666666666663,0,0,0.07766666666666663,0,0)" xlink:href="#ba"/><use transform="matrix(0.07766666666666663,0,0,0.07766666666666663,20.11566666666666,0)" xlink:href="#aI"/><use transform="matrix(0.07766666666666663,0,0,0.07766666666666663,35.64899999999999,0)" xlink:href="#bb"/><use transform="matrix(0.07766666666666663,0,0,0.07766666666666663,51.18233333333331,0)" xlink:href="#aC"/><use transform="matrix(0.07766666666666663,0,0,0.07766666666666663,66.71566666666664,0)" xlink:href="#aP"/><use transform="matrix(0.07766666666666663,0,0,0.07766666666666663,75.95799999999997,0)" xlink:href="#aM"/><use transform="matrix(0.07766666666666663,0,0,0.07766666666666663,83.72466666666664,0)" xlink:href="#aN"/></g><g id="E"><use transform="matrix(0.07766666666666663,0,0,0.07766666666666663,0,0)" xlink:href="#aY"/><use transform="matrix(0.07766666666666663,0,0,0.07766666666666663,20.11566666666666,0)" xlink:href="#aP"/><use transform="matrix(0.07766666666666663,0,0,0.07766666666666663,29.357999999999993,0)" xlink:href="#aI"/><use transform="matrix(0.07766666666666663,0,0,0.07766666666666663,44.891333333333314,0)" xlink:href="#aR"/><use transform="matrix(0.07766666666666663,0,0,0.07766666666666663,60.42466666666664,0)" xlink:href="#aM"/><use transform="matrix(0.07766666666666663,0,0,0.07766666666666663,68.1913333333333,0)" xlink:href="#aI"/></g><path fill="#fff" d="M0 4l72-265h28L28 4H0" id="bc"/><g id="F"><use transform="matrix(0.07766666666666663,0,0,0.07766666666666663,0,0)" xlink:href="#aR"/><use transform="matrix(0.07766666666666663,0,0,0.07766666666666663,15.533333333333326,0)" xlink:href="#bb"/><use transform="matrix(0.07766666666666663,0,0,0.07766666666666663,31.066666666666652,0)" xlink:href="#bb"/><use transform="matrix(0.07766666666666663,0,0,0.07766666666666663,46.59999999999998,0)" xlink:href="#aM"/><use transform="matrix(0.07766666666666663,0,0,0.07766666666666663,54.366666666666646,0)" xlink:href="#aN"/><use transform="matrix(0.07766666666666663,0,0,0.07766666666666663,68.34666666666664,0)" xlink:href="#bc"/><use transform="matrix(0.07766666666666663,0,0,0.07766666666666663,76.1133333333333,0)" xlink:href="#aM"/><use transform="matrix(0.07766666666666663,0,0,0.07766666666666663,83.87999999999997,0)" xlink:href="#aI"/><use transform="matrix(0.07766666666666663,0,0,0.07766666666666663,99.4133333333333,0)" xlink:href="#aN"/><use transform="matrix(0.07766666666666663,0,0,0.07766666666666663,113.39333333333329,0)" xlink:href="#aM"/><use transform="matrix(0.07766666666666663,0,0,0.07766666666666663,121.15999999999995,0)" xlink:href="#aN"/></g><path fill="#fff" d="M63-220v92h138v28H63V0H30v-248h175v28H63" id="bd"/><g id="G"><use transform="matrix(0.07766666666666663,0,0,0.07766666666666663,0,0)" xlink:href="#bd"/><use transform="matrix(0.07766666666666663,0,0,0.07766666666666663,17.008999999999993,0)" xlink:href="#aE"/><use transform="matrix(0.07766666666666663,0,0,0.07766666666666663,23.144666666666655,0)" xlink:href="#aX"/><use transform="matrix(0.07766666666666663,0,0,0.07766666666666663,29.280333333333324,0)" xlink:href="#aI"/></g><g id="H"><use transform="matrix(0.07766666666666663,0,0,0.07766666666666663,0,0)" xlink:href="#aV"/><use transform="matrix(0.07766666666666663,0,0,0.07766666666666663,18.639999999999993,0)" xlink:href="#aI"/><use transform="matrix(0.07766666666666663,0,0,0.07766666666666663,34.17333333333332,0)" xlink:href="#aP"/><use transform="matrix(0.07766666666666663,0,0,0.07766666666666663,43.415666666666645,0)" xlink:href="#aN"/><use transform="matrix(0.07766666666666663,0,0,0.07766666666666663,57.39566666666664,0)" xlink:href="#aT"/><use transform="matrix(0.07766666666666663,0,0,0.07766666666666663,71.37566666666663,0)" xlink:href="#aP"/><use transform="matrix(0.07766666666666663,0,0,0.07766666666666663,80.61799999999997,0)" xlink:href="#aE"/><use transform="matrix(0.07766666666666663,0,0,0.07766666666666663,86.75366666666663,0)" xlink:href="#bb"/><use transform="matrix(0.07766666666666663,0,0,0.07766666666666663,102.28699999999996,0)" xlink:href="#aM"/><use transform="matrix(0.07766666666666663,0,0,0.07766666666666663,110.05366666666664,0)" xlink:href="#aE"/><use transform="matrix(0.07766666666666663,0,0,0.07766666666666663,116.18933333333331,0)" xlink:href="#aC"/><use transform="matrix(0.07766666666666663,0,0,0.07766666666666663,131.7226666666666,0)" xlink:href="#aF"/><use transform="matrix(0.07766666666666663,0,0,0.07766666666666663,147.25599999999994,0)" xlink:href="#aN"/></g></defs></g></svg>