<svg xmlns="http://www.w3.org/2000/svg" xmlns:xlink="http://www.w3.org/1999/xlink" xmlns:lucid="lucid" width="1032.99" height="794.52"><g transform="translate(-196.48259259259214 -51.972865341005715)" lucid:page-tab-id="0_0"><path d="M0 0h1425.96v1845.36H0z" fill="#fff"/><path d="M333.17 76.97c0-2.76 2.24-5 5-5h749.62c2.75 0 5 2.24 5 5v70c0 2.76-2.25 5-5 5H338.16c-2.76 0-5-2.24-5-5z" stroke="#000" stroke-opacity="0" stroke-width="2" fill="#fff" fill-opacity="0"/><use xlink:href="#a" transform="matrix(1,0,0,1,337.96740740740734,76.77286534100571) translate(63.788888888888835 42.43333333333334)"/><use xlink:href="#b" transform="matrix(1,0,0,1,337.96740740740734,76.77286534100571) translate(171.64074074074068 42.43333333333334)"/><use xlink:href="#c" transform="matrix(1,0,0,1,337.96740740740734,76.77286534100571) translate(216.01111111111106 42.43333333333334)"/><use xlink:href="#d" transform="matrix(1,0,0,1,337.96740740740734,76.77286534100571) translate(328.38148148148144 42.43333333333334)"/><use xlink:href="#e" transform="matrix(1,0,0,1,337.96740740740734,76.77286534100571) translate(344.6037037037037 42.43333333333334)"/><use xlink:href="#f" transform="matrix(1,0,0,1,337.96740740740734,76.77286534100571) translate(455.64074074074074 42.43333333333334)"/><use xlink:href="#g" transform="matrix(1,0,0,1,337.96740740740734,76.77286534100571) translate(510.3074074074074 42.43333333333334)"/><use xlink:href="#h" transform="matrix(1,0,0,1,337.96740740740734,76.77286534100571) translate(570.9000000000001 42.43333333333334)"/><path d="M433.17 137.4c0-2.76 2.24-5 5-5h544.77c2.76 0 5 2.24 5 5v34.24c0 2.76-2.24 5-5 5H438.17c-2.76 0-5-2.24-5-5z" stroke="#000" stroke-opacity="0" stroke-width="2" fill="#fff" fill-opacity="0"/><use xlink:href="#i" transform="matrix(1,0,0,1,437.9674074074073,137.20441800615097) translate(158.14999999999998 22.211111111111112)"/><use xlink:href="#j" transform="matrix(1,0,0,1,437.9674074074073,137.20441800615097) translate(196.17469135802466 22.211111111111112)"/><use xlink:href="#k" transform="matrix(1,0,0,1,437.9674074074073,137.20441800615097) translate(261.72407407407405 22.211111111111112)"/><use xlink:href="#l" transform="matrix(1,0,0,1,437.9674074074073,137.20441800615097) translate(274.38456790123456 22.211111111111112)"/><use xlink:href="#m" transform="matrix(1,0,0,1,437.9674074074073,137.20441800615097) translate(340.79814814814813 22.211111111111112)"/><use xlink:href="#n" transform="matrix(1,0,0,1,437.9674074074073,137.20441800615097) translate(358.0820987654321 22.211111111111112)"/><path d="M443.13 137.2h536.45M443.13 137.2h-3M979.58 137.2h3" stroke="#b2b2b2" stroke-width="2" fill="none"/><path d="M520.43 193.73c0-2.76 2.24-5 5-5h158c2.76 0 5 2.24 5 5v90.8c0 2.76-2.24 5-5 5h-158c-2.76 0-5-2.24-5-5z" stroke="#000" stroke-opacity="0" stroke-width="2" fill="#a5ceff"/><use xlink:href="#o" transform="matrix(1,0,0,1,525.427592592592,193.72999999999993) translate(44.86550000000001 51.092)"/><path d="M604.43 289.53v47.55" stroke="#666" stroke-width="2" fill="none"/><path fill="#666"/><path d="M604.43 352.08l-4.64-14.26h9.26z" fill="#666"/><path d="M604.43 355.32l-6-18.5h12zm-3.26-16.5l3.26 10.03 3.26-10.03z" fill="#666"/><path d="M888.58 193.73c0-2.76 2.24-5 5-5h158c2.76 0 5 2.24 5 5v90.8c0 2.76-2.24 5-5 5h-158c-2.76 0-5-2.24-5-5z" stroke="#000" stroke-opacity="0" stroke-width="2" fill="#a5ceff"/><use xlink:href="#p" transform="matrix(1,0,0,1,893.5788888888883,193.72999999999993) translate(31.662166666666685 51.092)"/><use xlink:href="#q" transform="matrix(1,0,0,1,893.5788888888883,193.72999999999993) translate(95.27116666666666 51.092)"/><path d="M520.43 360.32c0-2.76 2.24-5 5-5h158c2.76 0 5 2.24 5 5v90.8c0 2.76-2.24 5-5 5h-158c-2.76 0-5-2.24-5-5z" stroke="#000" stroke-opacity="0" stroke-width="2" fill="#a5ceff"/><use xlink:href="#r" transform="matrix(1,0,0,1,525.427592592592,360.31852453553506) translate(41.79766666666668 51.092)"/><path d="M845.58 349.8c0-2.76 2.24-5 5-5h244c2.76 0 5 2.24 5 5v111.84c0 2.76-2.24 5-5 5h-244c-2.76 0-5-2.24-5-5z" stroke="#000" stroke-opacity="0" stroke-width="2" fill="#a5ceff"/><use xlink:href="#s" transform="matrix(1,0,0,1,850.5825925925919,349.7985245355351) translate(58.66930555555558 18.72000000000002)"/><use xlink:href="#t" transform="matrix(1,0,0,1,850.5825925925919,349.7985245355351) translate(130.96402777777777 18.72000000000002)"/><use xlink:href="#u" transform="matrix(1,0,0,1,850.5825925925919,349.7985245355351) translate(91.0627777777778 46.68000000000001)"/><use xlink:href="#v" transform="matrix(1,0,0,1,850.5825925925919,349.7985245355351) translate(12.781250000000057 74.64)"/><use xlink:href="#w" transform="matrix(1,0,0,1,850.5825925925919,349.7985245355351) translate(86.43513888888891 74.64)"/><use xlink:href="#x" transform="matrix(1,0,0,1,850.5825925925919,349.7985245355351) translate(52.77958333333336 102.6)"/><use xlink:href="#y" transform="matrix(1,0,0,1,850.5825925925919,349.7985245355351) translate(130.44625 102.6)"/><path d="M827.35 405.72h-120.7" stroke="#666" stroke-width="2" fill="none"/><path d="M842.35 405.72l-14.27 4.63v-9.27z" fill="#666"/><path d="M845.58 405.72l-18.5 6v-12zm-16.5 3.26l10.03-3.26-10.02-3.26zM705.93 410.35l-14.27-4.63 14.27-4.64z" fill="#666"/><path d="M706.93 411.73l-18.5-6 18.5-6.02zm-12.03-6l10.03 3.25v-6.52z" fill="#666"/><path d="M972.58 289.53v37.03" stroke="#666" stroke-width="2" fill="none"/><path fill="#666"/><path d="M972.58 341.56l-4.64-14.26h9.27z" fill="#666"/><path d="M972.58 344.8l-6-18.5h12zm-3.26-16.5l3.26 10.03 3.26-10.03z" fill="#666"/><path d="M216.48 593.9c0-2.76 2.24-5 5-5h158c2.76 0 5 2.24 5 5v90.8c0 2.76-2.24 5-5 5h-158c-2.76 0-5-2.24-5-5z" stroke="#000" stroke-opacity="0" stroke-width="2" fill="#a5ceff"/><use xlink:href="#z" transform="matrix(1,0,0,1,221.48259259259214,593.8976603039276) translate(23.89550000000002 34.316)"/><use xlink:href="#A" transform="matrix(1,0,0,1,221.48259259259214,593.8976603039276) translate(35.62316666666669 67.868)"/><path d="M510.06 593.9c0-2.76 2.24-5 5-5H693.8c2.75 0 5 2.24 5 5v90.8c0 2.76-2.25 5-5 5H515.05c-2.76 0-5-2.24-5-5z" stroke="#000" stroke-opacity="0" stroke-width="2" fill="#a5ceff"/><use xlink:href="#B" transform="matrix(1,0,0,1,515.062592592592,593.8976603039276) translate(23.522166666666692 34.316)"/><use xlink:href="#C" transform="matrix(1,0,0,1,515.062592592592,593.8976603039276) translate(14.163333333333355 67.868)"/><use xlink:href="#D" transform="matrix(1,0,0,1,515.062592592592,593.8976603039276) translate(80.95666666666666 67.868)"/><use xlink:href="#E" transform="matrix(1,0,0,1,515.062592592592,593.8976603039276) translate(96.49 67.868)"/><path d="M793.7 593.9c0-2.76 2.22-5 5-5h158c2.75 0 5 2.24 5 5v90.8c0 2.76-2.25 5-5 5h-158c-2.78 0-5-2.24-5-5z" stroke="#000" stroke-opacity="0" stroke-width="2" fill="#a5ceff"/><g><use xlink:href="#F" transform="matrix(1,0,0,1,798.6857407407401,593.8976603039276) translate(1.5275000000000318 51.092)"/><use xlink:href="#A" transform="matrix(1,0,0,1,798.6857407407401,593.8976603039276) translate(69.71883333333334 51.092)"/></g><path d="M1041.48 593.9c0-2.76 2.24-5 5-5h158c2.76 0 5 2.24 5 5v90.8c0 2.76-2.24 5-5 5h-158c-2.76 0-5-2.24-5-5z" stroke="#000" stroke-opacity="0" stroke-width="2" fill="#a5ceff"/><g><use xlink:href="#G" transform="matrix(1,0,0,1,1046.4774074074076,593.8976603039276) translate(6.92533333333337 51.092)"/><use xlink:href="#A" transform="matrix(1,0,0,1,1046.4774074074076,593.8976603039276) translate(64.32100000000001 51.092)"/></g><path d="M604.43 456.12v61.4c0 2.75-2.24 5-5 5H305.48c-2.76 0-5 2.23-5 5v43.14" stroke="#666" stroke-width="2" fill="none"/><path fill="#666"/><path d="M300.48 585.66l-4.63-14.26h9.27z" fill="#666"/><path d="M300.48 588.9l-6-18.5h12zm-3.26-16.5l3.26 10.03 3.26-10.03z" fill="#666"/><path d="M604.43 456.12v114.54" stroke="#666" stroke-width="2" fill="none"/><path fill="#666"/><path d="M604.43 585.66l-4.64-14.26h9.26z" fill="#666"/><path d="M604.43 588.9l-6-18.5h12zm-3.26-16.5l3.26 10.03 3.26-10.03z" fill="#666"/><path d="M604.43 456.12v56.13c0 2.76 2.24 5 5 5H872.7c2.75 0 5 2.24 5 5v48.4" stroke="#666" stroke-width="2" fill="none"/><path fill="#666"/><path d="M877.7 585.66l-4.65-14.26h9.27z" fill="#666"/><path d="M877.7 588.9l-6.03-18.5h12.03zm-3.27-16.5l3.26 10.03 3.24-10.03z" fill="#666"/><path d="M604.43 456.12v56.13c0 2.76 2.24 5 5 5h511.05c2.76 0 5 2.24 5 5v48.4" stroke="#666" stroke-width="2" fill="none"/><path fill="#666"/><path d="M1125.48 585.66l-4.64-14.26h9.27z" fill="#666"/><path d="M1125.48 588.9l-6-18.5h12zm-3.26-16.5l3.26 10.03 3.26-10.03z" fill="#666"/><defs><path fill="#666" d="M24-248c120-7 223 5 221 122C244-46 201 0 124 0H24v-248zM76-40c74 7 117-18 117-86 0-67-45-88-117-82v168" id="H"/><path fill="#666" d="M110-194c64 0 96 36 96 99 0 64-35 99-97 99-61 0-95-36-95-99 0-62 34-99 96-99zm-1 164c35 0 45-28 45-65 0-40-10-65-43-65-34 0-45 26-45 65 0 36 10 65 43 65" id="I"/><path fill="#666" d="M190-63c-7 42-38 67-86 67-59 0-84-38-90-98-12-110 154-137 174-36l-49 2c-2-19-15-32-35-32-30 0-35 28-38 64-6 74 65 87 74 30" id="J"/><path fill="#666" d="M115-3C79 11 28 4 28-45v-112H4v-33h27l15-45h31v45h36v33H77v99c-1 23 16 31 38 25v30" id="K"/><path fill="#666" d="M135-150c-39-12-60 13-60 57V0H25l-1-190h47c2 13-1 29 3 40 6-28 27-53 61-41v41" id="L"/><path fill="#666" d="M137-138c1-29-70-34-71-4 15 46 118 7 119 86 1 83-164 76-172 9l43-7c4 19 20 25 44 25 33 8 57-30 24-41C81-84 22-81 20-136c-2-80 154-74 161-7" id="M"/><g id="a"><use transform="matrix(0.07407407407407408,0,0,0.07407407407407408,0,0)" xlink:href="#H"/><use transform="matrix(0.07407407407407408,0,0,0.07407407407407408,19.185185185185187,0)" xlink:href="#I"/><use transform="matrix(0.07407407407407408,0,0,0.07407407407407408,35.40740740740741,0)" xlink:href="#J"/><use transform="matrix(0.07407407407407408,0,0,0.07407407407407408,50.22222222222223,0)" xlink:href="#K"/><use transform="matrix(0.07407407407407408,0,0,0.07407407407407408,59.037037037037045,0)" xlink:href="#I"/><use transform="matrix(0.07407407407407408,0,0,0.07407407407407408,75.25925925925927,0)" xlink:href="#L"/><use transform="matrix(0.07407407407407408,0,0,0.07407407407407408,85.62962962962965,0)" xlink:href="#M"/></g><path fill="#666" d="M140-251c80 0 125 45 125 126S219 4 139 4C58 4 15-44 15-125s44-126 125-126zm-1 214c52 0 73-35 73-88 0-50-21-86-72-86-52 0-73 35-73 86s22 88 72 88" id="N"/><path fill="#666" d="M135-194c87-1 58 113 63 194h-50c-7-57 23-157-34-157-59 0-34 97-39 157H25l-1-190h47c2 12-1 28 3 38 12-26 28-41 61-42" id="O"/><g id="b"><use transform="matrix(0.07407407407407408,0,0,0.07407407407407408,0,0)" xlink:href="#N"/><use transform="matrix(0.07407407407407408,0,0,0.07407407407407408,20.740740740740744,0)" xlink:href="#O"/></g><path fill="#666" d="M185-48c-13 30-37 53-82 52C43 2 14-33 14-96s30-98 90-98c62 0 83 45 84 108H66c0 31 8 55 39 56 18 0 30-7 34-22zm-45-69c5-46-57-63-70-21-2 6-4 13-4 21h74" id="P"/><path fill="#666" d="M220-157c-53 9-28 100-34 157h-49v-107c1-27-5-49-29-50C55-147 81-57 75 0H25l-1-190h47c2 12-1 28 3 38 10-53 101-56 108 0 13-22 24-43 59-42 82 1 51 116 57 194h-49v-107c-1-25-5-48-29-50" id="Q"/><path fill="#666" d="M133-34C117-15 103 5 69 4 32 3 11-16 11-54c-1-60 55-63 116-61 1-26-3-47-28-47-18 1-26 9-28 27l-52-2c7-38 36-58 82-57s74 22 75 68l1 82c-1 14 12 18 25 15v27c-30 8-71 5-69-32zm-48 3c29 0 43-24 42-57-32 0-66-3-65 30 0 17 8 27 23 27" id="R"/><path fill="#666" d="M88-194c31-1 46 15 58 34l-1-101h50l1 261h-48c-2-10 0-23-3-31C134-8 116 4 84 4 32 4 16-41 15-95c0-56 19-97 73-99zm17 164c33 0 40-30 41-66 1-37-9-64-41-64s-38 30-39 65c0 43 13 65 39 65" id="S"/><g id="c"><use transform="matrix(0.07407407407407408,0,0,0.07407407407407408,0,0)" xlink:href="#H"/><use transform="matrix(0.07407407407407408,0,0,0.07407407407407408,19.185185185185187,0)" xlink:href="#P"/><use transform="matrix(0.07407407407407408,0,0,0.07407407407407408,34,0)" xlink:href="#Q"/><use transform="matrix(0.07407407407407408,0,0,0.07407407407407408,57.70370370370371,0)" xlink:href="#R"/><use transform="matrix(0.07407407407407408,0,0,0.07407407407407408,72.51851851851853,0)" xlink:href="#O"/><use transform="matrix(0.07407407407407408,0,0,0.07407407407407408,88.74074074074078,0)" xlink:href="#S"/></g><path fill="#666" d="M14-72v-43h91v43H14" id="T"/><use transform="matrix(0.07407407407407408,0,0,0.07407407407407408,0,0)" xlink:href="#T" id="d"/><path fill="#666" d="M169-182c-1-43-94-46-97-3 18 66 151 10 154 114 3 95-165 93-204 36-6-8-10-19-12-30l50-8c3 46 112 56 116 5-17-69-150-10-154-114-4-87 153-88 188-35 5 8 8 18 10 28" id="U"/><g id="e"><use transform="matrix(0.07407407407407408,0,0,0.07407407407407408,0,0)" xlink:href="#U"/><use transform="matrix(0.07407407407407408,0,0,0.07407407407407408,17.77777777777778,0)" xlink:href="#J"/><use transform="matrix(0.07407407407407408,0,0,0.07407407407407408,32.592592592592595,0)" xlink:href="#L"/><use transform="matrix(0.07407407407407408,0,0,0.07407407407407408,42.96296296296297,0)" xlink:href="#P"/><use transform="matrix(0.07407407407407408,0,0,0.07407407407407408,57.777777777777786,0)" xlink:href="#P"/><use transform="matrix(0.07407407407407408,0,0,0.07407407407407408,72.59259259259261,0)" xlink:href="#O"/><use transform="matrix(0.07407407407407408,0,0,0.07407407407407408,88.81481481481484,0)" xlink:href="#M"/></g><g id="f"><use transform="matrix(0.07407407407407408,0,0,0.07407407407407408,0,0)" xlink:href="#R"/><use transform="matrix(0.07407407407407408,0,0,0.07407407407407408,14.814814814814817,0)" xlink:href="#O"/><use transform="matrix(0.07407407407407408,0,0,0.07407407407407408,31.03703703703704,0)" xlink:href="#S"/></g><path fill="#666" d="M121-226c-27-7-43 5-38 36h38v33H83V0H34v-157H6v-33h28c-9-59 32-81 87-68v32" id="V"/><path fill="#666" d="M25 0v-261h50V0H25" id="W"/><path fill="#666" d="M231 0h-52l-39-155L100 0H48L-1-190h46L77-45c9-52 24-97 36-145h53l37 145 32-145h46" id="X"/><g id="g"><use transform="matrix(0.07407407407407408,0,0,0.07407407407407408,0,0)" xlink:href="#V"/><use transform="matrix(0.07407407407407408,0,0,0.07407407407407408,8.814814814814817,0)" xlink:href="#W"/><use transform="matrix(0.07407407407407408,0,0,0.07407407407407408,16.222222222222225,0)" xlink:href="#I"/><use transform="matrix(0.07407407407407408,0,0,0.07407407407407408,32.44444444444445,0)" xlink:href="#X"/></g><path fill="#666" d="M20 75v-336h95v34H67V41h48v34H20" id="Y"/><path fill="#666" d="M24-248c93 1 206-16 204 79-1 75-69 88-152 82V0H24v-248zm52 121c47 0 100 7 100-41 0-47-54-39-100-39v80" id="Z"/><path fill="#666" d="M25-224v-37h50v37H25zM25 0v-190h50V0H25" id="aa"/><path fill="#666" d="M4 75V41h49v-268H4v-34h96V75H4" id="ab"/><g id="h"><use transform="matrix(0.07407407407407408,0,0,0.07407407407407408,0,0)" xlink:href="#Y"/><use transform="matrix(0.07407407407407408,0,0,0.07407407407407408,8.814814814814817,0)" xlink:href="#Z"/><use transform="matrix(0.07407407407407408,0,0,0.07407407407407408,26.592592592592595,0)" xlink:href="#R"/><use transform="matrix(0.07407407407407408,0,0,0.07407407407407408,41.40740740740741,0)" xlink:href="#K"/><use transform="matrix(0.07407407407407408,0,0,0.07407407407407408,50.22222222222223,0)" xlink:href="#aa"/><use transform="matrix(0.07407407407407408,0,0,0.07407407407407408,57.62962962962964,0)" xlink:href="#P"/><use transform="matrix(0.07407407407407408,0,0,0.07407407407407408,72.44444444444446,0)" xlink:href="#O"/><use transform="matrix(0.07407407407407408,0,0,0.07407407407407408,88.66666666666667,0)" xlink:href="#K"/><use transform="matrix(0.07407407407407408,0,0,0.07407407407407408,97.4814814814815,0)" xlink:href="#M"/><use transform="matrix(0.07407407407407408,0,0,0.07407407407407408,112.2962962962963,0)" xlink:href="#ab"/></g><path fill="#666" d="M153-248C145-148 188 4 80 4 36 3 13-21 6-62l32-5c4 25 16 42 43 43 27 0 39-20 39-49v-147H72v-28h81" id="ac"/><path fill="#666" d="M100-194c62-1 85 37 85 99 1 63-27 99-86 99S16-35 15-95c0-66 28-99 85-99zM99-20c44 1 53-31 53-75 0-43-8-75-51-75s-53 32-53 75 10 74 51 75" id="ad"/><path fill="#666" d="M106-169C34-169 62-67 57 0H25v-261h32l-1 103c12-21 28-36 61-36 89 0 53 116 60 194h-32v-121c2-32-8-49-39-48" id="ae"/><path fill="#666" d="M117-194c89-4 53 116 60 194h-32v-121c0-31-8-49-39-48C34-167 62-67 57 0H25l-1-190h30c1 10-1 24 2 32 11-22 29-35 61-36" id="af"/><g id="i"><use transform="matrix(0.04320987654320988,0,0,0.04320987654320988,0,0)" xlink:href="#ac"/><use transform="matrix(0.04320987654320988,0,0,0.04320987654320988,7.777777777777779,0)" xlink:href="#ad"/><use transform="matrix(0.04320987654320988,0,0,0.04320987654320988,16.419753086419753,0)" xlink:href="#ae"/><use transform="matrix(0.04320987654320988,0,0,0.04320987654320988,25.061728395061728,0)" xlink:href="#af"/></g><path fill="#666" d="M185-189c-5-48-123-54-124 2 14 75 158 14 163 119 3 78-121 87-175 55-17-10-28-26-33-46l33-7c5 56 141 63 141-1 0-78-155-14-162-118-5-82 145-84 179-34 5 7 8 16 11 25" id="ag"/><path fill="#666" d="M141-36C126-15 110 5 73 4 37 3 15-17 15-53c-1-64 63-63 125-63 3-35-9-54-41-54-24 1-41 7-42 31l-33-3c5-37 33-52 76-52 45 0 72 20 72 64v82c-1 20 7 32 28 27v20c-31 9-61-2-59-35zM48-53c0 20 12 33 32 33 41-3 63-29 60-74-43 2-92-5-92 41" id="ah"/><path fill="#666" d="M59-47c-2 24 18 29 38 22v24C64 9 27 4 27-40v-127H5v-23h24l9-43h21v43h35v23H59v120" id="ai"/><path fill="#666" d="M100-194c63 0 86 42 84 106H49c0 40 14 67 53 68 26 1 43-12 49-29l28 8c-11 28-37 45-77 45C44 4 14-33 15-96c1-61 26-98 85-98zm52 81c6-60-76-77-97-28-3 7-6 17-6 28h103" id="aj"/><path fill="#666" d="M114-163C36-179 61-72 57 0H25l-1-190h30c1 12-1 29 2 39 6-27 23-49 58-41v29" id="ak"/><path fill="#666" d="M101-234c-31-9-42 10-38 44h38v23H63V0H32v-167H5v-23h27c-7-52 17-82 69-68v24" id="al"/><path fill="#666" d="M24-231v-30h32v30H24zM24 0v-190h32V0H24" id="am"/><path fill="#666" d="M24 0v-261h32V0H24" id="an"/><g id="j"><use transform="matrix(0.04320987654320988,0,0,0.04320987654320988,0,0)" xlink:href="#ag"/><use transform="matrix(0.04320987654320988,0,0,0.04320987654320988,10.370370370370372,0)" xlink:href="#ah"/><use transform="matrix(0.04320987654320988,0,0,0.04320987654320988,19.01234567901235,0)" xlink:href="#ai"/><use transform="matrix(0.04320987654320988,0,0,0.04320987654320988,23.333333333333336,0)" xlink:href="#aj"/><use transform="matrix(0.04320987654320988,0,0,0.04320987654320988,31.97530864197531,0)" xlink:href="#ak"/><use transform="matrix(0.04320987654320988,0,0,0.04320987654320988,37.117283950617285,0)" xlink:href="#al"/><use transform="matrix(0.04320987654320988,0,0,0.04320987654320988,41.43827160493827,0)" xlink:href="#am"/><use transform="matrix(0.04320987654320988,0,0,0.04320987654320988,44.851851851851855,0)" xlink:href="#aj"/><use transform="matrix(0.04320987654320988,0,0,0.04320987654320988,53.49382716049383,0)" xlink:href="#an"/></g><path fill="#666" d="M32 76v-337h29V76H32" id="ao"/><use transform="matrix(0.04320987654320988,0,0,0.04320987654320988,0,0)" xlink:href="#ao" id="k"/><path fill="#666" d="M63-220v92h138v28H63V0H30v-248h175v28H63" id="ap"/><path fill="#666" d="M115-194c53 0 69 39 70 98 0 66-23 100-70 100C84 3 66-7 56-30L54 0H23l1-261h32v101c10-23 28-34 59-34zm-8 174c40 0 45-34 45-75 0-40-5-75-45-74-42 0-51 32-51 76 0 43 10 73 51 73" id="aq"/><path fill="#666" d="M84 4C-5 8 30-112 23-190h32v120c0 31 7 50 39 49 72-2 45-101 50-169h31l1 190h-30c-1-10 1-25-2-33-11 22-28 36-60 37" id="ar"/><path fill="#666" d="M179-190L93 31C79 59 56 82 12 73V49c39 6 53-20 64-50L1-190h34L92-34l54-156h33" id="as"/><g id="l"><use transform="matrix(0.04320987654320988,0,0,0.04320987654320988,0,0)" xlink:href="#ap"/><use transform="matrix(0.04320987654320988,0,0,0.04320987654320988,9.462962962962964,0)" xlink:href="#aj"/><use transform="matrix(0.04320987654320988,0,0,0.04320987654320988,18.10493827160494,0)" xlink:href="#aq"/><use transform="matrix(0.04320987654320988,0,0,0.04320987654320988,26.746913580246915,0)" xlink:href="#ak"/><use transform="matrix(0.04320987654320988,0,0,0.04320987654320988,31.888888888888893,0)" xlink:href="#ar"/><use transform="matrix(0.04320987654320988,0,0,0.04320987654320988,40.53086419753087,0)" xlink:href="#ah"/><use transform="matrix(0.04320987654320988,0,0,0.04320987654320988,49.17283950617284,0)" xlink:href="#ak"/><use transform="matrix(0.04320987654320988,0,0,0.04320987654320988,54.314814814814824,0)" xlink:href="#as"/></g><path fill="#666" d="M126-127c33 6 58 20 58 59 0 88-139 92-164 29-3-8-5-16-6-25l32-3c6 27 21 44 54 44 32 0 52-15 52-46 0-38-36-46-79-43v-28c39 1 72-4 72-42 0-27-17-43-46-43-28 0-47 15-49 41l-32-3c6-42 35-63 81-64 48-1 79 21 79 65 0 36-21 52-52 59" id="at"/><path fill="#666" d="M68-38c1 34 0 65-14 84H32c9-13 17-26 17-46H33v-38h35" id="au"/><g id="m"><use transform="matrix(0.04320987654320988,0,0,0.04320987654320988,0,0)" xlink:href="#at"/><use transform="matrix(0.04320987654320988,0,0,0.04320987654320988,8.641975308641976,0)" xlink:href="#au"/></g><path fill="#666" d="M101-251c82-7 93 87 43 132L82-64C71-53 59-42 53-27h129V0H18c2-99 128-94 128-182 0-28-16-43-45-43s-46 15-49 41l-32-3c6-41 34-60 81-64" id="av"/><path fill="#666" d="M101-251c68 0 85 55 85 127S166 4 100 4C33 4 14-52 14-124c0-73 17-127 87-127zm-1 229c47 0 54-49 54-102s-4-102-53-102c-51 0-55 48-55 102 0 53 5 102 54 102" id="aw"/><path fill="#666" d="M27 0v-27h64v-190l-56 39v-29l58-41h29v221h61V0H27" id="ax"/><path fill="#666" d="M99-251c64 0 84 50 84 122C183-37 130 33 47-8c-14-7-20-23-25-40l30-5c6 39 69 39 84 7 9-19 16-44 16-74-10 22-31 35-62 35-49 0-73-33-73-83 0-54 28-83 82-83zm-1 141c31-1 51-18 51-49 0-36-14-67-51-67-34 0-49 23-49 58 0 34 15 58 49 58" id="ay"/><g id="n"><use transform="matrix(0.04320987654320988,0,0,0.04320987654320988,0,0)" xlink:href="#av"/><use transform="matrix(0.04320987654320988,0,0,0.04320987654320988,8.641975308641976,0)" xlink:href="#aw"/><use transform="matrix(0.04320987654320988,0,0,0.04320987654320988,17.283950617283953,0)" xlink:href="#ax"/><use transform="matrix(0.04320987654320988,0,0,0.04320987654320988,25.925925925925927,0)" xlink:href="#ay"/></g><path fill="#fff" d="M30 0v-248h33v221h125V0H30" id="az"/><path fill="#fff" d="M100-194c62-1 85 37 85 99 1 63-27 99-86 99S16-35 15-95c0-66 28-99 85-99zM99-20c44 1 53-31 53-75 0-43-8-75-51-75s-53 32-53 75 10 74 51 75" id="aA"/><path fill="#fff" d="M177-190C167-65 218 103 67 71c-23-6-38-20-44-43l32-5c15 47 100 32 89-28v-30C133-14 115 1 83 1 29 1 15-40 15-95c0-56 16-97 71-98 29-1 48 16 59 35 1-10 0-23 2-32h30zM94-22c36 0 50-32 50-73 0-42-14-75-50-75-39 0-46 34-46 75s6 73 46 73" id="aB"/><path fill="#fff" d="M24-231v-30h32v30H24zM24 0v-190h32V0H24" id="aC"/><path fill="#fff" d="M117-194c89-4 53 116 60 194h-32v-121c0-31-8-49-39-48C34-167 62-67 57 0H25l-1-190h30c1 10-1 24 2 32 11-22 29-35 61-36" id="aD"/><g id="o"><use transform="matrix(0.07766666666666663,0,0,0.07766666666666663,0,0)" xlink:href="#az"/><use transform="matrix(0.07766666666666663,0,0,0.07766666666666663,15.533333333333326,0)" xlink:href="#aA"/><use transform="matrix(0.07766666666666663,0,0,0.07766666666666663,31.066666666666652,0)" xlink:href="#aB"/><use transform="matrix(0.07766666666666663,0,0,0.07766666666666663,46.59999999999998,0)" xlink:href="#aC"/><use transform="matrix(0.07766666666666663,0,0,0.07766666666666663,52.735666666666646,0)" xlink:href="#aD"/></g><path fill="#fff" d="M185-189c-5-48-123-54-124 2 14 75 158 14 163 119 3 78-121 87-175 55-17-10-28-26-33-46l33-7c5 56 141 63 141-1 0-78-155-14-162-118-5-82 145-84 179-34 5 7 8 16 11 25" id="aE"/><g id="p"><use transform="matrix(0.07766666666666663,0,0,0.07766666666666663,0,0)" xlink:href="#aE"/><use transform="matrix(0.07766666666666663,0,0,0.07766666666666663,18.639999999999993,0)" xlink:href="#aC"/><use transform="matrix(0.07766666666666663,0,0,0.07766666666666663,24.77566666666666,0)" xlink:href="#aB"/><use transform="matrix(0.07766666666666663,0,0,0.07766666666666663,40.30899999999998,0)" xlink:href="#aD"/></g><path fill="#fff" d="M84 4C-5 8 30-112 23-190h32v120c0 31 7 50 39 49 72-2 45-101 50-169h31l1 190h-30c-1-10 1-25-2-33-11 22-28 36-60 37" id="aF"/><path fill="#fff" d="M115-194c55 1 70 41 70 98S169 2 115 4C84 4 66-9 55-30l1 105H24l-1-265h31l2 30c10-21 28-34 59-34zm-8 174c40 0 45-34 45-75s-6-73-45-74c-42 0-51 32-51 76 0 43 10 73 51 73" id="aG"/><g id="q"><use transform="matrix(0.07766666666666663,0,0,0.07766666666666663,0,0)" xlink:href="#aF"/><use transform="matrix(0.07766666666666663,0,0,0.07766666666666663,15.533333333333326,0)" xlink:href="#aG"/></g><path fill="#fff" d="M197 0v-115H63V0H30v-248h33v105h134v-105h34V0h-34" id="aH"/><path fill="#fff" d="M210-169c-67 3-38 105-44 169h-31v-121c0-29-5-50-35-48C34-165 62-65 56 0H25l-1-190h30c1 10-1 24 2 32 10-44 99-50 107 0 11-21 27-35 58-36 85-2 47 119 55 194h-31v-121c0-29-5-49-35-48" id="aI"/><path fill="#fff" d="M100-194c63 0 86 42 84 106H49c0 40 14 67 53 68 26 1 43-12 49-29l28 8c-11 28-37 45-77 45C44 4 14-33 15-96c1-61 26-98 85-98zm52 81c6-60-76-77-97-28-3 7-6 17-6 28h103" id="aJ"/><g id="r"><use transform="matrix(0.07766666666666663,0,0,0.07766666666666663,0,0)" xlink:href="#aH"/><use transform="matrix(0.07766666666666663,0,0,0.07766666666666663,20.11566666666666,0)" xlink:href="#aA"/><use transform="matrix(0.07766666666666663,0,0,0.07766666666666663,35.64899999999999,0)" xlink:href="#aI"/><use transform="matrix(0.07766666666666663,0,0,0.07766666666666663,58.87133333333331,0)" xlink:href="#aJ"/></g><path fill="#fff" d="M30-248c87 1 191-15 191 75 0 78-77 80-158 76V0H30v-248zm33 125c57 0 124 11 124-50 0-59-68-47-124-48v98" id="aK"/><path fill="#fff" d="M114-163C36-179 61-72 57 0H25l-1-190h30c1 12-1 29 2 39 6-27 23-49 58-41v29" id="aL"/><path fill="#fff" d="M101-234c-31-9-42 10-38 44h38v23H63V0H32v-167H5v-23h27c-7-52 17-82 69-68v24" id="aM"/><path fill="#fff" d="M24 0v-261h32V0H24" id="aN"/><g id="s"><use transform="matrix(0.0647222222222222,0,0,0.0647222222222222,0,0)" xlink:href="#aK"/><use transform="matrix(0.0647222222222222,0,0,0.0647222222222222,15.533333333333326,0)" xlink:href="#aL"/><use transform="matrix(0.0647222222222222,0,0,0.0647222222222222,23.235277777777767,0)" xlink:href="#aA"/><use transform="matrix(0.0647222222222222,0,0,0.0647222222222222,36.17972222222221,0)" xlink:href="#aM"/><use transform="matrix(0.0647222222222222,0,0,0.0647222222222222,42.65194444444443,0)" xlink:href="#aC"/><use transform="matrix(0.0647222222222222,0,0,0.0647222222222222,47.764999999999986,0)" xlink:href="#aN"/><use transform="matrix(0.0647222222222222,0,0,0.0647222222222222,52.87805555555554,0)" xlink:href="#aJ"/></g><path fill="#fff" d="M141-36C126-15 110 5 73 4 37 3 15-17 15-53c-1-64 63-63 125-63 3-35-9-54-41-54-24 1-41 7-42 31l-33-3c5-37 33-52 76-52 45 0 72 20 72 64v82c-1 20 7 32 28 27v20c-31 9-61-2-59-35zM48-53c0 20 12 33 32 33 41-3 63-29 60-74-43 2-92-5-92 41" id="aO"/><g id="t"><use transform="matrix(0.0647222222222222,0,0,0.0647222222222222,0,0)" xlink:href="#aK"/><use transform="matrix(0.0647222222222222,0,0,0.0647222222222222,15.533333333333326,0)" xlink:href="#aO"/><use transform="matrix(0.0647222222222222,0,0,0.0647222222222222,28.477777777777767,0)" xlink:href="#aB"/><use transform="matrix(0.0647222222222222,0,0,0.0647222222222222,41.4222222222222,0)" xlink:href="#aJ"/></g><path fill="#fff" d="M160-131c35 5 61 23 61 61C221 17 115-2 30 0v-248c76 3 177-17 177 60 0 33-19 50-47 57zm-97-11c50-1 110 9 110-42 0-47-63-36-110-37v79zm0 115c55-2 124 14 124-45 0-56-70-42-124-44v89" id="aP"/><g id="u"><use transform="matrix(0.0647222222222222,0,0,0.0647222222222222,0,0)" xlink:href="#aP"/><use transform="matrix(0.0647222222222222,0,0,0.0647222222222222,15.533333333333326,0)" xlink:href="#aC"/><use transform="matrix(0.0647222222222222,0,0,0.0647222222222222,20.64638888888888,0)" xlink:href="#aN"/><use transform="matrix(0.0647222222222222,0,0,0.0647222222222222,25.759444444444433,0)" xlink:href="#aN"/><use transform="matrix(0.0647222222222222,0,0,0.0647222222222222,30.872499999999988,0)" xlink:href="#aC"/><use transform="matrix(0.0647222222222222,0,0,0.0647222222222222,35.98555555555554,0)" xlink:href="#aD"/><use transform="matrix(0.0647222222222222,0,0,0.0647222222222222,48.92999999999998,0)" xlink:href="#aB"/></g><path fill="#fff" d="M59-47c-2 24 18 29 38 22v24C64 9 27 4 27-40v-127H5v-23h24l9-43h21v43h35v23H59v120" id="aQ"/><path fill="#fff" d="M106-169C34-169 62-67 57 0H25v-261h32l-1 103c12-21 28-36 61-36 89 0 53 116 60 194h-32v-121c2-32-8-49-39-48" id="aR"/><g id="v"><use transform="matrix(0.0647222222222222,0,0,0.0647222222222222,0,0)" xlink:href="#aH"/><use transform="matrix(0.0647222222222222,0,0,0.0647222222222222,16.76305555555555,0)" xlink:href="#aJ"/><use transform="matrix(0.0647222222222222,0,0,0.0647222222222222,29.70749999999999,0)" xlink:href="#aO"/><use transform="matrix(0.0647222222222222,0,0,0.0647222222222222,42.651944444444425,0)" xlink:href="#aN"/><use transform="matrix(0.0647222222222222,0,0,0.0647222222222222,47.76499999999998,0)" xlink:href="#aQ"/><use transform="matrix(0.0647222222222222,0,0,0.0647222222222222,54.2372222222222,0)" xlink:href="#aR"/></g><path fill="#fff" d="M140-251c81 0 123 46 123 126C263-53 228-8 163 1c7 30 30 48 69 40v23c-55 16-95-15-103-61C56-3 17-48 17-125c0-80 42-126 123-126zm0 227c63 0 89-41 89-101s-29-99-89-99c-61 0-89 39-89 99S79-25 140-24" id="aS"/><path fill="#fff" d="M135-143c-3-34-86-38-87 0 15 53 115 12 119 90S17 21 10-45l28-5c4 36 97 45 98 0-10-56-113-15-118-90-4-57 82-63 122-42 12 7 21 19 24 35" id="aT"/><g id="w"><use transform="matrix(0.0647222222222222,0,0,0.0647222222222222,0,0)" xlink:href="#aS"/><use transform="matrix(0.0647222222222222,0,0,0.0647222222222222,18.122222222222213,0)" xlink:href="#aF"/><use transform="matrix(0.0647222222222222,0,0,0.0647222222222222,31.066666666666652,0)" xlink:href="#aJ"/><use transform="matrix(0.0647222222222222,0,0,0.0647222222222222,44.01111111111109,0)" xlink:href="#aT"/><use transform="matrix(0.0647222222222222,0,0,0.0647222222222222,55.66111111111108,0)" xlink:href="#aQ"/><use transform="matrix(0.0647222222222222,0,0,0.0647222222222222,62.133333333333304,0)" xlink:href="#aC"/><use transform="matrix(0.0647222222222222,0,0,0.0647222222222222,67.24638888888886,0)" xlink:href="#aA"/><use transform="matrix(0.0647222222222222,0,0,0.0647222222222222,80.1908333333333,0)" xlink:href="#aD"/><use transform="matrix(0.0647222222222222,0,0,0.0647222222222222,93.13527777777774,0)" xlink:href="#aD"/><use transform="matrix(0.0647222222222222,0,0,0.0647222222222222,106.07972222222219,0)" xlink:href="#aO"/><use transform="matrix(0.0647222222222222,0,0,0.0647222222222222,119.02416666666663,0)" xlink:href="#aC"/><use transform="matrix(0.0647222222222222,0,0,0.0647222222222222,124.13722222222218,0)" xlink:href="#aL"/><use transform="matrix(0.0647222222222222,0,0,0.0647222222222222,131.8391666666666,0)" xlink:href="#aJ"/></g><path fill="#fff" d="M205 0l-28-72H64L36 0H1l101-248h38L239 0h-34zm-38-99l-47-123c-12 45-31 82-46 123h93" id="aU"/><path fill="#fff" d="M96-169c-40 0-48 33-48 73s9 75 48 75c24 0 41-14 43-38l32 2c-6 37-31 61-74 61-59 0-76-41-82-99-10-93 101-131 147-64 4 7 5 14 7 22l-32 3c-4-21-16-35-41-35" id="aV"/><g id="x"><use transform="matrix(0.0647222222222222,0,0,0.0647222222222222,0,0)" xlink:href="#aU"/><use transform="matrix(0.0647222222222222,0,0,0.0647222222222222,15.533333333333326,0)" xlink:href="#aV"/><use transform="matrix(0.0647222222222222,0,0,0.0647222222222222,27.183333333333323,0)" xlink:href="#aV"/><use transform="matrix(0.0647222222222222,0,0,0.0647222222222222,38.833333333333314,0)" xlink:href="#aJ"/><use transform="matrix(0.0647222222222222,0,0,0.0647222222222222,51.77777777777776,0)" xlink:href="#aG"/><use transform="matrix(0.0647222222222222,0,0,0.0647222222222222,64.7222222222222,0)" xlink:href="#aQ"/></g><path fill="#fff" d="M30 0v-248h187v28H63v79h144v27H63v87h162V0H30" id="aW"/><path fill="#fff" d="M232-93c-1 65-40 97-104 97C67 4 28-28 28-90v-158h33c8 89-33 224 67 224 102 0 64-133 71-224h33v155" id="aX"/><g id="y"><use transform="matrix(0.0647222222222222,0,0,0.0647222222222222,0,0)" xlink:href="#aW"/><use transform="matrix(0.0647222222222222,0,0,0.0647222222222222,15.533333333333326,0)" xlink:href="#aX"/><use transform="matrix(0.0647222222222222,0,0,0.0647222222222222,32.29638888888888,0)" xlink:href="#az"/><use transform="matrix(0.0647222222222222,0,0,0.0647222222222222,45.24083333333331,0)" xlink:href="#aU"/></g><path fill="#fff" d="M179-190L93 31C79 59 56 82 12 73V49c39 6 53-20 64-50L1-190h34L92-34l54-156h33" id="aY"/><g id="z"><use transform="matrix(0.07766666666666663,0,0,0.07766666666666663,0,0)" xlink:href="#aK"/><use transform="matrix(0.07766666666666663,0,0,0.07766666666666663,18.639999999999993,0)" xlink:href="#aO"/><use transform="matrix(0.07766666666666663,0,0,0.07766666666666663,34.17333333333332,0)" xlink:href="#aY"/><use transform="matrix(0.07766666666666663,0,0,0.07766666666666663,48.15333333333331,0)" xlink:href="#aI"/><use transform="matrix(0.07766666666666663,0,0,0.07766666666666663,71.37566666666663,0)" xlink:href="#aJ"/><use transform="matrix(0.07766666666666663,0,0,0.07766666666666663,86.90899999999996,0)" xlink:href="#aD"/><use transform="matrix(0.07766666666666663,0,0,0.07766666666666663,102.4423333333333,0)" xlink:href="#aQ"/></g><g id="A"><use transform="matrix(0.07766666666666663,0,0,0.07766666666666663,0,0)" xlink:href="#aH"/><use transform="matrix(0.07766666666666663,0,0,0.07766666666666663,20.11566666666666,0)" xlink:href="#aC"/><use transform="matrix(0.07766666666666663,0,0,0.07766666666666663,26.25133333333332,0)" xlink:href="#aT"/><use transform="matrix(0.07766666666666663,0,0,0.07766666666666663,40.23133333333331,0)" xlink:href="#aQ"/><use transform="matrix(0.07766666666666663,0,0,0.07766666666666663,47.997999999999976,0)" xlink:href="#aA"/><use transform="matrix(0.07766666666666663,0,0,0.07766666666666663,63.5313333333333,0)" xlink:href="#aL"/><use transform="matrix(0.07766666666666663,0,0,0.07766666666666663,72.77366666666663,0)" xlink:href="#aY"/></g><path fill="#fff" d="M85-194c31 0 48 13 60 33l-1-100h32l1 261h-30c-2-10 0-23-3-31C134-8 116 4 85 4 32 4 16-35 15-94c0-66 23-100 70-100zm9 24c-40 0-46 34-46 75 0 40 6 74 45 74 42 0 51-32 51-76 0-42-9-74-50-73" id="aZ"/><g id="B"><use transform="matrix(0.07766666666666663,0,0,0.07766666666666663,0,0)" xlink:href="#aE"/><use transform="matrix(0.07766666666666663,0,0,0.07766666666666663,18.639999999999993,0)" xlink:href="#aV"/><use transform="matrix(0.07766666666666663,0,0,0.07766666666666663,32.61999999999999,0)" xlink:href="#aR"/><use transform="matrix(0.07766666666666663,0,0,0.07766666666666663,48.153333333333315,0)" xlink:href="#aJ"/><use transform="matrix(0.07766666666666663,0,0,0.07766666666666663,63.68666666666664,0)" xlink:href="#aZ"/><use transform="matrix(0.07766666666666663,0,0,0.07766666666666663,79.21999999999997,0)" xlink:href="#aF"/><use transform="matrix(0.07766666666666663,0,0,0.07766666666666663,94.75333333333329,0)" xlink:href="#aN"/><use transform="matrix(0.07766666666666663,0,0,0.07766666666666663,100.88899999999998,0)" xlink:href="#aJ"/><use transform="matrix(0.07766666666666663,0,0,0.07766666666666663,116.4223333333333,0)" xlink:href="#aZ"/></g><g id="C"><use transform="matrix(0.07766666666666663,0,0,0.07766666666666663,0,0)" xlink:href="#aQ"/><use transform="matrix(0.07766666666666663,0,0,0.07766666666666663,7.766666666666663,0)" xlink:href="#aJ"/><use transform="matrix(0.07766666666666663,0,0,0.07766666666666663,23.29999999999999,0)" xlink:href="#aT"/><use transform="matrix(0.07766666666666663,0,0,0.07766666666666663,37.27999999999999,0)" xlink:href="#aQ"/><use transform="matrix(0.07766666666666663,0,0,0.07766666666666663,45.04666666666666,0)" xlink:href="#aT"/></g><path fill="#fff" d="M0 4l72-265h28L28 4H0" id="ba"/><use transform="matrix(0.07766666666666663,0,0,0.07766666666666663,0,0)" xlink:href="#ba" id="D"/><g id="E"><use transform="matrix(0.07766666666666663,0,0,0.07766666666666663,0,0)" xlink:href="#aO"/><use transform="matrix(0.07766666666666663,0,0,0.07766666666666663,15.533333333333326,0)" xlink:href="#aG"/><use transform="matrix(0.07766666666666663,0,0,0.07766666666666663,31.066666666666652,0)" xlink:href="#aG"/><use transform="matrix(0.07766666666666663,0,0,0.07766666666666663,46.59999999999998,0)" xlink:href="#aQ"/><use transform="matrix(0.07766666666666663,0,0,0.07766666666666663,54.366666666666646,0)" xlink:href="#aT"/></g><path fill="#fff" d="M212-179c-10-28-35-45-73-45-59 0-87 40-87 99 0 60 29 101 89 101 43 0 62-24 78-52l27 14C228-24 195 4 139 4 59 4 22-46 18-125c-6-104 99-153 187-111 19 9 31 26 39 46" id="bb"/><g id="F"><use transform="matrix(0.07766666666666663,0,0,0.07766666666666663,0,0)" xlink:href="#bb"/><use transform="matrix(0.07766666666666663,0,0,0.07766666666666663,20.11566666666666,0)" xlink:href="#aO"/><use transform="matrix(0.07766666666666663,0,0,0.07766666666666663,35.64899999999999,0)" xlink:href="#aL"/><use transform="matrix(0.07766666666666663,0,0,0.07766666666666663,44.891333333333314,0)" xlink:href="#aJ"/></g><path fill="#fff" d="M30-248c118-7 216 8 213 122C240-48 200 0 122 0H30v-248zM63-27c89 8 146-16 146-99s-60-101-146-95v194" id="bc"/><g id="G"><use transform="matrix(0.07766666666666663,0,0,0.07766666666666663,0,0)" xlink:href="#bc"/><use transform="matrix(0.07766666666666663,0,0,0.07766666666666663,20.11566666666666,0)" xlink:href="#aA"/><use transform="matrix(0.07766666666666663,0,0,0.07766666666666663,35.64899999999999,0)" xlink:href="#aV"/></g></defs></g></svg>
